<?xml version="1.0" standalone="no"?>
<!DOCTYPE svg PUBLIC "-//W3C//DTD SVG 1.1//EN" "http://www.w3.org/Graphics/SVG/1.1/DTD/svg11.dtd" >
<svg xmlns="http://www.w3.org/2000/svg">
<metadata></metadata>
<defs>
<font id="androgyneregular" horiz-adv-x="1427" >
<font-face units-per-em="2048" ascent="1638" descent="-410" />
<missing-glyph horiz-adv-x="561" />
<glyph horiz-adv-x="2048" />
<glyph horiz-adv-x="2048" />
<glyph unicode="&#xd;" horiz-adv-x="2048" />
<glyph unicode=" "  horiz-adv-x="561" />
<glyph unicode="&#x09;" horiz-adv-x="561" />
<glyph unicode="&#xa0;" horiz-adv-x="561" />
<glyph unicode="!" horiz-adv-x="694" d="M195 57q0 33 10 75.5t10 55.5q0 17 -2 27q88 43 160 43q66 0 101.5 -30.5t35.5 -86.5q0 -18 -27 -118q-85 -58 -180 -58q-53 0 -80.5 25t-27.5 67zM305 489q0 71 14 142q127 596 138 762q6 75 -13 157q117 43 189 43q67 0 100 -27.5t33 -88.5q0 -54 -29 -164 q-24 -98 -53.5 -216t-46.5 -185.5t-36.5 -145.5t-29.5 -121t-19.5 -85.5t-13 -66t-3.5 -36.5q0 -27 6 -51q-57 -5 -66 -5q-158 0 -170 88z" />
<glyph unicode="&#x22;" horiz-adv-x="798" d="M305 1143q0 25 30 171.5t30 188.5q0 9 -7 27q89 47 193 47q65 0 65 -49q0 -15 -2 -23q-8 -50 -67 -174q-16 -35 -38.5 -88t-31.5 -72t-25.5 -43t-33 -31t-41.5 -7q-46 0 -59 10.5t-13 42.5zM680 1143q0 25 29.5 171.5t29.5 188.5q0 12 -6 27q89 47 193 47q65 0 65 -49 q0 -15 -2 -23q-8 -50 -67 -174q-16 -35 -38.5 -88t-31.5 -72t-25.5 -43t-33 -31t-41.5 -7q-46 0 -59 10.5t-13 42.5z" />
<glyph unicode="#" horiz-adv-x="1318" d="M100 389q2 9 6 26q7 28 11 41.5t11 34.5t13.5 29.5t18 22.5t25.5 19.5t33.5 13t45 10t58 4.5t73.5 2q116 302 146 375h-52q-137 0 -219 -31q10 41 21 69.5t24 51.5t33 36.5t40.5 23t56 13.5t71 5.5t92.5 1.5q92 234 92 348q0 24 -6 45q64 12 119 12q80 0 80 -67 q0 -34 -19 -98t-36.5 -109.5t-53.5 -132.5h209q124 325 144 364q62 35 131 35q67 0 82 -53q-64 -112 -172 -346h45q87 0 176 28q-7 -50 -23 -85t-38.5 -56.5t-58 -33.5t-74.5 -16.5t-95 -4.5q-24 -65 -75.5 -209t-59.5 -168h53q113 0 209 47q-12 -57 -32 -96.5t-45.5 -63 t-64.5 -36.5t-78 -17t-97 -4q-89 -276 -89 -352q0 -38 9 -68q-77 -23 -125 -23q-46 0 -66 16.5t-20 53.5q0 50 25.5 136.5t78.5 238.5h-225q-115 -264 -115 -432q-63 -13 -104 -13q-47 0 -68.5 15t-21.5 49q0 6 2 18t2 23q34 128 123 340h-43q-116 0 -183 -33zM575 590h216 q63 187 141 377h-215q-19 -50 -68.5 -182.5t-73.5 -194.5z" />
<glyph unicode="$" horiz-adv-x="1159" d="M74 240q0 58 42 119t111 100q-2 -31 12.5 -74t43.5 -88.5t81.5 -83t118.5 -49.5q12 68 47 256t54 295q-139 88 -213 178t-74 201q0 191 131.5 320.5t343.5 152.5q2 16 4 42.5t2 28.5q0 46 -4 66q19 22 96 22q26 0 40 -21.5t14 -51.5q0 -13 -5 -43t-6 -37 q306 -20 306 -162q0 -38 -34 -84.5t-75 -81.5q-14 16 -41 49.5t-38.5 45.5t-35 30t-49 26t-61.5 11q-12 -66 -44.5 -239.5t-49.5 -272.5q62 -43 103.5 -74.5t87 -74t72.5 -81t44.5 -87t17.5 -99.5q0 -131 -70 -238t-189 -170t-265 -73q-8 -74 -8 -94q0 -16 8 -37 q-41 -33 -80 -33q-59 0 -82 23q5 42 21 139q-63 3 -127.5 20t-121.5 46t-92.5 75.5t-35.5 102.5zM547 1180q0 -117 123 -195q24 126 75 424q-89 -12 -143.5 -73t-54.5 -156zM621 158q117 14 178 74t61 165q0 115 -155 234q-10 -56 -39.5 -222.5t-44.5 -250.5z" />
<glyph unicode="%" horiz-adv-x="1794" d="M231 1020q0 62 19.5 141t54 154t89 126.5t116.5 51.5q24 0 38.5 -2.5t33.5 -16.5t32 -42q-83 -51 -128.5 -163.5t-45.5 -228.5q0 -159 113 -159q52 0 95.5 40.5t70.5 103t42 132t15 131.5q0 61 -4 90q-82 45 -82 92q0 80 96 166q113 -139 301 -139q85 0 190 20.5 t196 69.5q71 39 106 39q64 0 109 -65q-312 -375 -611 -789q-19 -26 -92 -126.5t-101 -140t-88 -127t-93.5 -142t-74.5 -128.5t-71 -139q-87 9 -124.5 28.5t-37.5 53.5q2 19 10 41t17 42t27.5 50t31.5 50t40 57.5t42.5 57.5t49 64.5t49.5 65.5q94 124 381 504.5t307 409.5 q-96 -41 -163.5 -61.5t-131.5 -20.5q-47 0 -78 10q2 -16 2 -29q0 -137 -60.5 -266t-173 -214t-247.5 -85q-136 0 -201.5 76.5t-65.5 216.5zM1006 244q0 113 40.5 223t108.5 195.5t165 138.5t204 53q241 0 241 -297q0 -148 -61 -278.5t-175.5 -212.5t-256.5 -82 q-266 0 -266 260zM1217 287q0 -67 28.5 -110.5t89.5 -43.5q68 0 121.5 67.5t78 153t24.5 162.5q0 32 -5 61.5t-15.5 58.5t-32 46.5t-50.5 17.5q-65 0 -122 -70t-87 -164.5t-30 -178.5z" />
<glyph unicode="&#x26;" horiz-adv-x="1073" d="M106 111q0 238 306 495q-70 60 -70 166q0 138 103 254.5t255 167.5q41 14 74 14q36 0 62 -16q42 -22 45 -72q14 -84 -66 -209t-201 -233q108 -117 242 -205q47 83 78 172.5t31 155.5q-2 29 -11.5 46.5t-19.5 21t-18.5 5t-8.5 3.5q0 15 43.5 40t71.5 33q94 34 94 -57 q0 -26 -14 -98q-11 -84 -59.5 -184t-112.5 -187q6 -3 24 -14t36 -21t42.5 -23t48.5 -21.5t49 -14.5t49.5 -5t45.5 9q6 3 21 13q27 19 27 11q0 -2 -1 -6q-12 -32 -31 -56.5t-45.5 -41.5t-45 -25.5t-47.5 -19.5q-8 -3 -11 -4q-42 -13 -134 8.5t-145 62.5q-193 -231 -407 -307 q-88 -30 -150 -30q-150 0 -150 172zM328 244q0 -131 94 -131q26 0 63 12q132 44 250 194q-159 98 -270 232q-137 -153 -137 -307zM530 866q0 -81 41 -125q88 85 138.5 170.5t48.5 139.5q-1 31 -29 39.5t-63 -5.5q-61 -20 -98.5 -80.5t-37.5 -138.5z" />
<glyph unicode="'" horiz-adv-x="460" d="M313 1120q-1 27 27 182t27 199q0 7 -9 29q94 51 203 51q34 0 52 -14.5t20 -38.5q0 -15 -2 -25q-7 -46 -68 -184q-15 -35 -33 -80.5t-27 -67t-22 -47t-24 -36t-27.5 -18t-38.5 -7.5q-50 0 -64 11t-14 46z" />
<glyph unicode="(" horiz-adv-x="821" d="M178 436q0 218 71 438t202 402q117 152 232.5 235.5t199.5 83.5q68 0 108 -55q-227 -112 -375 -393q-160 -306 -172 -641q0 -492 244 -574q-85 -110 -180 -110q-79 0 -143.5 52.5t-104 140t-61 196t-21.5 225.5z" />
<glyph unicode=")" horiz-adv-x="786" d="M-14 -119q242 131 395 449q151 310 151 635q0 222 -63 355.5t-182 168.5q85 110 180 110q66 0 121.5 -36t93 -96.5t64.5 -140.5t39 -166t12 -175q0 -218 -70.5 -438t-200.5 -402q-120 -153 -234 -236t-200 -83q-66 0 -106 55z" />
<glyph unicode="*" horiz-adv-x="1019" d="M193 944q0 5 4 25q170 66 176 69q-102 40 -156 84q-58 51 -20 103q31 45 84 57q16 4 26 4q7 -9 29.5 -37.5t45 -56t44.5 -51.5q5 97 31 174q13 32 37 46.5t55 4.5q58 -19 80 -61q3 -3 12 -25q0 -1 -39.5 -60.5t-60.5 -97.5q100 26 174 23q34 -2 56 -20t22 -50 q0 -58 -35 -96q-5 -7 -19 -18q-11 3 -75.5 21t-106.5 26q60 -95 76 -160q9 -32 -1.5 -58t-41.5 -36q-57 -18 -103 2q-11 4 -22 12q-7 152 -10 186q-63 -75 -129 -120q-27 -18 -56 -15.5t-47 27.5q-33 43 -30 98z" />
<glyph unicode="+" horiz-adv-x="1107" d="M154 432q15 79 36 133q13 32 45 52.5t84.5 30t100.5 12t121 2.5q51 209 51 313q0 21 -4 53q61 14 98 14q70 0 95.5 -14t25.5 -51q0 -35 -9.5 -83.5t-30.5 -129.5t-26 -102h56q189 0 293 28q-15 -74 -39 -129q-8 -26 -32 -44t-54.5 -28t-78 -15.5t-88.5 -7t-100 -1.5 q-49 -235 -49 -311q0 -37 6 -64q-65 -14 -104 -14q-123 0 -123 59q0 100 70 330h-88q-156 0 -256 -33z" />
<glyph unicode="," horiz-adv-x="608" d="M-37 -221q0 6 3.5 15t4.5 13q130 23 190 83.5t60 162.5q0 58 -51 140q31 31 96.5 54t116.5 23q58 0 91.5 -25.5t33.5 -90.5q0 -145 -150 -283q-70 -65 -156.5 -113.5t-158.5 -48.5q-24 0 -52 18.5t-28 51.5z" />
<glyph unicode="-" horiz-adv-x="712" d="M164 485q0 25 12 52q35 86 64 126.5t59 53t84 12.5q11 1 24.5 1t33 -0.5t32.5 -0.5h68q117 0 204 23q13 -23 7 -50q-12 -45 -26.5 -77t-35.5 -52.5t-40.5 -32.5t-54 -17.5t-61.5 -7t-77 -1.5h-60q-72 0 -150.5 -14.5t-82.5 -14.5z" />
<glyph unicode="." horiz-adv-x="581" d="M154 47v31q3 20 9.5 50.5t9.5 48.5t3 30q0 16 -2 24q85 45 160 45q65 0 100 -30.5t35 -85.5q0 -58 -37 -150q-82 -45 -164 -45q-104 0 -114 82z" />
<glyph unicode="/" horiz-adv-x="915" d="M16 -74q22 82 390 768q314 590 456 779q61 68 109 95t129 27q22 0 96 -8q-86 -82 -243 -325.5t-337 -571.5q-327 -618 -368 -846q-19 0 -65.5 -2t-69.5 -2q-61 0 -88.5 17.5t-8.5 68.5z" />
<glyph unicode="0" horiz-adv-x="1245" d="M127 410q0 136 25.5 277.5t72 275t117 251t156.5 206t195.5 139.5t228.5 51q87 0 154 -23t111 -64t71.5 -102.5t39 -133.5t11.5 -163q-2 -135 -27.5 -273.5t-71 -269.5t-115 -245t-154.5 -200t-195.5 -135.5t-231.5 -49.5q-202 0 -294.5 122t-92.5 337zM428 422 q0 -309 166 -309q90 0 168.5 97t129.5 249.5t81 329t33 344.5q0 307 -175 307q-109 0 -200.5 -146t-144 -378t-58.5 -494z" />
<glyph unicode="1" horiz-adv-x="1042" d="M131 86q0 65 41 129q8 -1 42 -7t59.5 -9.5t45.5 -3.5q37 0 87 4q16 41 24 75q133 535 256 1092q-153 -25 -266 -63q-38 -12 -60 9t-22 72q0 84 31 160q138 0 299 16t272 56q57 -66 57 -125q0 -26 -8 -57q-37 -161 -139.5 -589.5t-151.5 -656.5q18 0 76 5 q69 3 114.5 -26.5t45.5 -78.5q0 -44 -49 -127q-63 33 -197 33h-209q-54 0 -186 -4q-61 -2 -108.5 22t-53.5 74z" />
<glyph unicode="2" horiz-adv-x="1245" d="M82 96q0 30 8 43q197 162 335 290t251 273q265 338 268 535q0 71 -54 120.5t-126 49.5q-84 0 -163 -42.5t-132 -119.5q-44 -44 -70 -51q-47 76 -47 139q0 80 74.5 144t190.5 97.5t245 33.5q186 0 289.5 -82t103.5 -244q0 -173 -155 -397q-88 -131 -244 -297 q-27 -29 -196 -195.5t-185 -183.5q152 -4 195 -4q59 0 149 4q67 4 128.5 20t99 29.5t49.5 13.5q16 0 16 -59q0 -139 -40 -191.5t-157 -52.5q-35 0 -172.5 5.5t-226.5 5.5q-74 0 -193.5 -6.5t-152.5 -6.5q-51 0 -59 8q-12 12 -20.5 51.5t-8.5 69.5z" />
<glyph unicode="3" horiz-adv-x="1187" d="M90 104q0 41 16.5 94.5t43.5 96.5q53 -75 133.5 -117.5t171.5 -42.5q159 0 262.5 98t103.5 240q0 92 -55.5 162t-147.5 70q-128 0 -258 -31q-20 44 -20 80q0 33 16.5 58.5t49 42.5t63 28t75.5 24q10 3 15 4q77 26 137 53t120.5 67.5t94 95t33.5 118.5q0 86 -48 131 t-132 45q-93 0 -172.5 -49t-120.5 -133q-2 2 -10 12.5t-11 14t-11 13.5t-11.5 15t-10 14.5t-9.5 15t-7.5 14t-6.5 14.5t-3.5 13t-1.5 13q0 109 121 169.5t305 60.5q416 0 416 -305q0 -151 -107 -267q-48 -52 -114.5 -93.5t-175.5 -96.5q-1 -1 -3 -2t-2 -2q0 -4 5 -4 q126 3 215 -90q79 -85 79 -222q0 -126 -59 -235.5t-155.5 -182t-220.5 -114t-255 -41.5q-178 0 -263 37t-85 114z" />
<glyph unicode="4" horiz-adv-x="1263" d="M90 545q0 24 8 43q43 108 166.5 267t286.5 329q142 147 265 255t255 185q62 0 101.5 -23.5t39.5 -50.5q0 -16 -3 -42t-7 -48t-10.5 -58t-9.5 -54q-24 -105 -90.5 -370.5t-81.5 -326.5q70 0 118 3t54 3q69 0 69 -57q0 -29 -30 -87t-64 -95q-93 25 -190 28q-4 -20 -11 -54 t-10.5 -50.5t-8.5 -43t-7.5 -40.5t-6.5 -34t-5.5 -32.5t-3.5 -27t-2.5 -26t-0.5 -21.5q0 -49 23 -101q-103 -49 -189 -49q-63 0 -90.5 24.5t-27.5 78.5q0 72 69 381q-131 0 -325.5 -14.5t-212.5 -14.5q-68 0 -68 123zM307 633q47 2 196.5 6.5t237.5 7.5q27 113 88 326.5 t80 290.5q-153 -132 -350 -332q-149 -149 -252 -299z" />
<glyph unicode="5" horiz-adv-x="1230" d="M90 111q0 76 47 159q72 -62 106 -83q96 -58 220 -58q176 0 280.5 99.5t104.5 283.5q0 116 -84 190q-71 68 -197 68q-47 0 -63 -6q-63 -10 -115 -10q-46 0 -72 10.5t-18 34.5q16 64 242 792q187 -22 352 -22q64 0 171.5 13t174.5 34q49 16 84 10q-18 -70 -49 -121t-69 -82 t-91 -49t-107 -24.5t-126 -6.5q-122 0 -203 11q-84 -244 -127 -389q66 14 176 14q194 0 311 -100.5t117 -294.5q0 -137 -57.5 -255t-156.5 -200t-236 -129t-291 -47q-324 0 -324 158z" />
<glyph unicode="6" horiz-adv-x="1245" d="M137 406q0 126 31 264t86 271.5t138 254.5t181 212.5t220.5 145.5t250.5 54q202 0 213 -142q0 -87 -16 -141q-89 78 -199 78q-77 0 -151 -36t-135 -96.5t-114.5 -140.5t-92 -166t-64.5 -176q90 76 169.5 110t164.5 34q165 0 257.5 -87.5t92.5 -258.5q0 -176 -83 -322 t-222.5 -228.5t-302.5 -82.5q-216 0 -320 117.5t-104 335.5zM424 403q0 -62 9.5 -110t31.5 -88t63 -61t99 -21q126 0 195 101.5t69 264.5q0 118 -55.5 179t-159.5 61q-103 0 -221 -88q-31 -133 -31 -238z" />
<glyph unicode="7" horiz-adv-x="991" d="M100 72q0 100 125 315.5t299 437.5q254 324 424 521q-348 -17 -586 -17q-102 0 -102 53q3 69 22.5 118t59.5 95q37 0 242.5 -8t351.5 -8q224 0 346 27q13 -58 -6 -125.5t-51 -106.5q-266 -311 -443 -565q-168 -242 -267 -446.5t-99 -327.5q0 -39 2 -55q-71 -27 -144 -27 q-174 0 -174 119z" />
<glyph unicode="8" horiz-adv-x="1245" d="M102 307q0 286 437 520q-76 65 -122 147t-46 169q0 133 73 240.5t196 167t271 59.5q183 0 281 -72.5t98 -210.5q0 -145 -92.5 -261t-275.5 -218q239 -174 239 -377q0 -96 -34 -180t-93 -144.5t-138 -104.5t-170 -65.5t-187 -21.5q-212 0 -324.5 91.5t-112.5 260.5z M399 324q0 -101 50.5 -156t148.5 -55q120 0 205.5 80.5t85.5 191.5q0 82 -60.5 166t-171.5 180q-258 -185 -258 -407zM639 1223q0 -138 158 -279q99 70 158 159t59 185q0 77 -43 120.5t-117 43.5q-102 0 -158.5 -61.5t-56.5 -167.5z" />
<glyph unicode="9" horiz-adv-x="1245" d="M139 123q0 59 35 121q3 -2 18.5 -16t23.5 -20t26.5 -17.5t34.5 -17t40.5 -10.5t51.5 -5q77 0 152.5 37t138.5 98t118 141.5t95 168t65 175.5q-160 -149 -342 -149q-164 0 -254 90t-90 258t81.5 312.5t222.5 229.5t306 85q223 0 322.5 -116t99.5 -358q-3 -154 -49 -319 t-131.5 -317t-197 -273t-257 -193.5t-299.5 -72.5q-211 0 -211 168zM528 1071q0 -111 52.5 -172t150.5 -61q95 0 234 84q27 112 30 235q0 283 -211 283q-125 0 -190.5 -102.5t-65.5 -266.5z" />
<glyph unicode=":" horiz-adv-x="581" d="M166 47v31q3 20 9.5 50.5t9.5 48.5t3 30q0 16 -2 24q85 45 160 45q65 0 100 -30.5t35 -85.5q0 -58 -37 -150q-82 -45 -163 -45q-105 0 -115 82zM317 858v31q4 21 10 50.5t9.5 48t3.5 30.5q0 16 -2 24q85 45 160 45q65 0 100 -30.5t35 -85.5q0 -58 -37 -150 q-82 -45 -164 -45q-105 0 -115 82z" />
<glyph unicode=";" horiz-adv-x="608" d="M-37 -221q0 6 3.5 15t4.5 13q130 23 190 83.5t60 162.5q0 58 -51 140q31 31 96.5 54t116.5 23q58 0 91.5 -25.5t33.5 -90.5q0 -145 -150 -283q-70 -65 -156.5 -113.5t-158.5 -48.5q-24 0 -52 18.5t-28 51.5zM317 858v31q4 21 10 50.5t9.5 48t3.5 30.5q0 16 -2 24 q85 45 160 45q65 0 100 -30.5t35 -85.5q0 -58 -37 -150q-82 -45 -164 -45q-105 0 -115 82z" />
<glyph unicode="&#x3c;" horiz-adv-x="862" d="M74 733q38 31 73 45q154 62 336.5 180.5t329.5 249.5q45 40 72 58q15 -9 22.5 -32.5t5.5 -35.5q-24 -123 -160.5 -255.5t-349.5 -254.5q324 -244 291 -477q-7 -44 -30 -64q-73 76 -208.5 190t-244.5 187q-6 4 -26.5 17t-27 17.5t-22 17t-21 21t-16 23.5t-14 30.5t-7 36.5 t-3.5 46z" />
<glyph unicode="=" horiz-adv-x="1191" d="M170 244q15 81 35.5 127.5t60.5 66.5t71.5 23.5t103.5 3.5h8h313q159 0 311 27q-18 -102 -37.5 -144t-60.5 -55q-138 -27 -318 -27h-77q-14 0 -40 1t-40 1q-201 0 -330 -24zM254 621q7 37 15.5 66t16.5 51t21.5 38.5t23.5 27.5t29.5 18.5t31.5 11.5t38 5.5t41 2t47 0.5h8 h308q162 0 305 26q-15 -99 -35.5 -142t-61.5 -56q-135 -27 -311 -27h-76q-13 0 -38 1t-39 1q-198 0 -324 -24z" />
<glyph unicode="&#x3e;" horiz-adv-x="862" d="M78 215q24 123 160.5 255.5t349.5 254.5q-324 244 -291 477q7 43 31 64q74 -77 209 -190.5t243 -186.5q7 -5 26.5 -17.5t26.5 -17t22.5 -17t21.5 -21t16 -23.5t14 -30.5t7.5 -36.5t3.5 -46q-37 -30 -74 -45q-154 -62 -336.5 -180.5t-329.5 -249.5q-46 -40 -72 -58 q-15 9 -22.5 32.5t-5.5 35.5z" />
<glyph unicode="?" horiz-adv-x="1038" d="M293 53q0 32 9 72.5t9 52.5q0 17 -2 27q87 41 154 41q63 0 97 -29.5t34 -83.5q0 -11 -25 -113q-82 -55 -174 -55q-51 0 -76.5 24t-25.5 64zM334 1356q0 77 71 137t172 88.5t207 28.5q186 0 291 -83t105 -257q0 -164 -131 -301q-49 -46 -135 -110.5t-146 -108.5 t-107 -101.5t-47 -107.5q0 -51 31 -115q-98 -66 -184 -66q-54 0 -88.5 49t-34.5 95q0 110 84 184q18 16 67.5 52t96.5 70.5t103.5 86t98 102.5t69.5 116t28 130q0 89 -51 134.5t-136 45.5q-75 0 -135.5 -46.5t-87.5 -118.5q-24 -33 -51 -39q-90 66 -90 135z" />
<glyph unicode="@" horiz-adv-x="1835" d="M141 295q0 216 94 415.5t247.5 342t356.5 227t414 84.5q144 0 260.5 -33.5t202.5 -99.5t133 -171.5t47 -242.5q0 -116 -41 -232t-111 -208t-173 -149.5t-219 -57.5q-98 0 -169.5 69t-74.5 167q-186 -261 -385 -261q-172 0 -172 203q0 95 44.5 202t114.5 194t165 144.5 t188 57.5t178 -57q39 45 121 45q33 0 94 -21q-55 -98 -101 -249.5t-46 -235.5q0 -50 21 -80.5t63 -30.5q88 0 155 70t99 175t32 224q0 208 -129 314t-360 106q-166 0 -320 -72.5t-266 -192.5t-179 -283t-67 -336q0 -218 125.5 -330.5t350.5 -112.5q251 0 446 103 q8 -21 8 -54q0 -32 -12 -59q-30 -60 -183 -102.5t-323 -42.5q-298 0 -463.5 144.5t-165.5 426.5zM766 375q0 -40 13.5 -60t47.5 -20q52 0 122 76t131.5 183.5t101.5 215.5q-19 29 -50.5 45t-58.5 16q-78 0 -151.5 -80t-114.5 -185.5t-41 -190.5z" />
<glyph unicode="A" horiz-adv-x="1318" d="M-41 43q0 45 33 107q164 297 543 931q222 374 266 455q98 72 214 72q21 0 42 -2q86 -9 92 -146q0 -104 2 -170q0 -37 3 -97t3 -83q3 -32 9 -145t12.5 -234.5t7.5 -142.5q12 -197 43 -342q31 -147 96 -207q-101 -70 -218 -70q-18 0 -36 2q-112 9 -137 201 q-8 51 -13.5 103.5t-11.5 129t-8 103.5q-36 -29 -94 -29q-169 -6 -332 -6q-39 -21 -59.5 -41.5t-36.5 -52.5q-10 -14 -23 -37t-21 -39.5t-23 -47.5t-19 -40q-10 -25 -16 -41t-13.5 -40.5t-10.5 -43.5t-4 -41.5t5 -42.5q-93 -35 -191 -35q-104 0 -104 72zM508 647h336 q3 0 51 6q-4 324 -29 660q-285 -527 -358 -666z" />
<glyph unicode="B" horiz-adv-x="1327" d="M152 152q0 46 6 73q23 98 61 258t66 277t56 239.5t43 203t15 110.5q0 12 -1 23.5t-2.5 21t-5 14.5t-7.5 4q-27 -6 -66 -6q-9 3 -6 35q0 28 13 57q14 27 24 42.5t27.5 26t25 13t39.5 12.5q202 54 402 54q59 0 90 -2q212 -11 317 -88t105 -242q-7 -140 -101.5 -247.5 t-263.5 -176.5q157 -32 240.5 -123.5t83.5 -220.5v-10q-6 -216 -203 -371q-200 -162 -520 -162q-67 0 -170.5 10.5t-161.5 22.5q-39 9 -72.5 55.5t-33.5 96.5zM461 201q72 -63 198 -66q162 0 256 98q88 98 91 236v10q0 212 -267 250q-27 5 -61 2q-20 -2 -64 -2q-30 0 -45 25 q-76 -307 -104 -475q-4 -29 -4 -78zM598 891q149 13 164 16q142 26 220 114t83 214v14q0 195 -248 195q-47 0 -149 -19q20 -41 20 -90q0 -44 -10 -90q-48 -222 -80 -354z" />
<glyph unicode="C" horiz-adv-x="1243" d="M145 518q0 164 46 325.5t132 299t199 243.5t256 166t295 60q101 0 177.5 -21t123.5 -68.5t47 -117.5q0 -129 -192 -213q-30 130 -90.5 191t-171.5 61q-94 0 -176.5 -60t-139.5 -156.5t-98 -216.5t-60.5 -240.5t-19.5 -229.5q0 -183 73 -282t220 -99q102 0 221 59t221 156 q29 -82 29 -111q0 -74 -91 -146.5t-233 -117.5t-284 -45q-251 0 -367.5 143t-116.5 420z" />
<glyph unicode="D" d="M137 104v6q0 21 10 72q25 114 119 506.5t121 540.5q6 30 6 49q0 20 -9.5 33t-21 17t-21 13.5t-9.5 24.5q0 86 47 154q235 88 489 88q294 0 454.5 -136t160.5 -419q0 -143 -36 -282t-99.5 -258t-152.5 -220t-193 -172.5t-223.5 -111.5t-241.5 -40q-224 0 -400 135z M467 266q14 -60 56.5 -85t131.5 -25q107 0 205 73.5t166.5 192t109 270.5t40.5 305q0 203 -90 315.5t-257 112.5q-67 0 -159 -20q14 -43 14 -94q0 -68 -37.5 -249t-97.5 -436.5t-82 -359.5z" />
<glyph unicode="E" horiz-adv-x="1103" d="M147 172q0 101 46 281q12 45 37 139.5t36 136t30.5 119t28.5 117t21.5 98.5t18 96t10 77.5t4.5 72.5q0 58 -6 62q-2 2 -4 1q-27 -6 -66 -6q-9 3 -6 35q0 30 12 57q28 55 49.5 72t67.5 22q269 25 520 25q44 0 117 4t98 4q62 0 92 -7.5t50 -29.5q-12 -83 -55.5 -148 t-106.5 -65q-8 0 -29 12.5t-58 25.5t-85 13h-76q-30 0 -82 2.5t-72 2.5h-90q25 -28 25 -62q0 -23 -4 -33q-56 -263 -88 -393h120q169 0 363 31q0 -22 -6 -49q-11 -40 -28 -69.5t-42 -48.5t-50 -30.5t-63 -17t-69.5 -7t-79.5 -1.5h-123h-61q-74 -230 -74 -373 q0 -24 4.5 -44.5t10 -35t18.5 -26.5t21.5 -19.5t27.5 -13t27.5 -8t31.5 -4t29 -1.5h30.5h26.5q91 0 184 22t156 44t80 22q0 -54 -12.5 -96.5t-34.5 -72.5t-58 -51.5t-75.5 -34.5t-95.5 -20.5t-109.5 -10t-124.5 -2.5q-48 0 -142.5 1t-141.5 1q-106 0 -140.5 45t-34.5 139z " />
<glyph unicode="F" horiz-adv-x="1007" d="M141 80q0 49 23 147q41 185 55 244q13 50 41.5 158t40.5 154.5t33.5 130.5t31 129t20.5 104t15.5 101.5t4.5 78.5q0 63 -9 64h-2q-31 -7 -65 -7q-9 3 -6 35q0 31 12 58q28 56 49 73t68 21q258 24 520 24q44 0 117 4.5t98 4.5q62 0 91.5 -7.5t49.5 -29.5 q-12 -83 -55.5 -148t-106.5 -65q-8 0 -29 13t-58 25.5t-85 12.5h-75q-30 0 -82 2t-72 2h-94q28 -32 28 -66q0 -20 -2 -34q-48 -241 -100 -451h94q127 0 249 9.5t173 25.5q0 -100 -46 -154t-103 -59q-229 -16 -318 -16q-52 0 -88 -5q-3 -9 -24 -90q-80 -356 -80 -448 q0 -23 10 -58.5t10 -44.5q-70 -49 -201 -49q-73 0 -103 26.5t-30 84.5z" />
<glyph unicode="G" horiz-adv-x="1347" d="M141 500q0 216 76.5 420.5t203 355.5t298.5 242.5t354 91.5q180 0 281.5 -52.5t101.5 -144.5q0 -59 -46 -110.5t-144 -102.5q-18 117 -95.5 180.5t-193.5 63.5q-92 0 -175 -58.5t-143 -154t-104 -214t-66 -241.5t-22 -235q0 -182 63 -281.5t185 -99.5q83 0 192 59 q43 61 66.5 140t48.5 208q0 28 -5 41.5t-20 20.5q-51 0 -100 -21q0 37 5.5 62.5t20.5 42.5t34 26.5t54 15t72.5 8t96.5 5.5q10 0 16 0.5t15.5 1t17.5 0.5q15 1 27 1q75 0 77 -26q1 -11 -1 -24.5t-4 -22.5t-7.5 -28t-7.5 -27q-94 -398 -94 -502q0 -22 10 -59t10 -47 q-34 -21 -93.5 -33t-117.5 -12q-45 0 -60.5 12.5t-15.5 54.5q-117 -96 -354 -96q-209 0 -333 149t-124 390z" />
<glyph unicode="H" horiz-adv-x="1445" d="M68 -84q0 50 34 154q280 831 297 1343q0 56 -32 119q119 67 211 67h14q50 0 78 -26q32 -29 32 -92q0 -46 -23.5 -220t-62.5 -362h426q53 0 76 6q24 63 33 105l141 618q26 130 143 130q9 0 19 -1q44 -5 87 -22.5t63 -40.5q-17 -17 -50 -142t-72 -307t-73 -348 t-64.5 -320.5t-33.5 -170.5q-31 -159 -31 -211q0 -85 47 -150q0 -31 -95.5 -55.5t-152.5 -24.5q-65 0 -90.5 32t-25.5 99q0 71 30 195q24 96 94 430q-69 -27 -251 -27q-35 0 -102 1t-97 1q-38 0 -68 -6q-14 -37 -28 -104q-14 -55 -56 -213t-64.5 -247t-27.5 -126 q-3 -24 -3 -53q0 -17 1 -35q-33 -20 -112.5 -42t-131.5 -22q-49 0 -65 15q-14 13 -14 42v11z" />
<glyph unicode="I" horiz-adv-x="634" d="M158 100q0 69 30 197q121 486 187 799q32 148 37 247q0 23 1 44.5t-11 41.5t-37 31q-14 3 -21 21q-5 15 -4 18.5t10 9.5q62 36 133.5 57t126.5 21q76 0 109 -41q24 -27 24 -75q0 -19 -4 -41q-19 -79 -59 -248t-63.5 -268t-55 -241.5t-55.5 -262.5q-31 -159 -31 -211 q0 -82 47 -150q0 -30 -96 -55t-152 -25q-64 0 -90 32.5t-26 98.5z" />
<glyph unicode="J" horiz-adv-x="694" d="M-262 -209q0 67 117 121q51 -57 114 -57q85 7 139.5 63t96.5 152q38 88 69 235q127 509 189 801q31 148 37 248q0 24 1 45.5t-11 41.5t-37 29q-14 6 -21 23q-5 15 -4 19t10 10q61 35 132 55t128 20q78 0 109 -38q24 -27 24 -76q0 -20 -4 -43q-47 -198 -130.5 -566.5 t-102.5 -453.5q-62 -273 -158 -445q-77 -150 -206.5 -232.5t-266.5 -82.5q-102 0 -163.5 36.5t-61.5 94.5z" />
<glyph unicode="K" horiz-adv-x="1355" d="M125 53q0 54 29 164q9 33 40 147t41.5 154t37 141.5t38 152.5t31.5 141.5t31 155t23 145.5t20 157q1 6 1 13q0 46 -24 106q105 60 215 67h14q51 0 78 -26q27 -27 28 -78q0 -7 -1 -14q-5 -52 -45 -255t-88 -380q33 29 74 57q294 199 420 335.5t129 256.5q0 39 -9 76 q94 22 133 22q59 0 90 -31.5t31 -89.5q0 -126 -133 -270q-48 -52 -131.5 -120t-150 -118t-121 -102.5t-62.5 -85.5q143 -285 283.5 -450.5t257.5 -165.5q6 0 10 -4q1 -2 1 -6t-1 -5q-27 -86 -92 -135t-145 -49q-79 0 -147.5 46.5t-143.5 156.5q-98 142 -188 311.5 t-126 276.5q-127 -544 -127 -631q0 -25 9 -54t10 -36q-35 -26 -99 -43t-126 -17q-58 0 -85.5 20.5t-29.5 63.5z" />
<glyph unicode="L" horiz-adv-x="1105" d="M164 123q0 138 97.5 598.5t197.5 763.5q15 51 69 92q39 27 90 27h13q104 -6 184 -70q-58 -64 -78 -117q-103 -283 -182.5 -629t-79.5 -520q0 -24 6 -39q66 -24 234 -24q231 0 370 71q2 1 3.5 2l3 2t2.5 1q4 0 4 -13q-3 -60 -14.5 -104t-26.5 -75.5t-49 -51.5t-62.5 -31 t-87.5 -16.5t-103.5 -6.5t-129.5 -1q-215 0 -330 -2q-79 0 -105 34.5t-26 108.5z" />
<glyph unicode="M" horiz-adv-x="1849" d="M111 61q0 40 16 103q11 40 119 418.5t127 451.5q82 313 100 375q1 8 1 16q0 47 -25 103q108 60 217 67h9q37 -1 68 -23q35 -26 39 -65q20 -196 181 -950q8 -37 22 -80q20 24 43 62q42 68 387 608q137 205 189 330q15 29 4 51q40 31 85 43.5t148 21.5q9 1 17 1q24 0 46 -9 q22 -10 22 -34q0 -6 -1 -13q-16 -93 -55 -256q-70 -307 -113 -600t-43 -408t62 -223q-142 -84 -232 -84q-60 0 -92 29t-35 98q0 70 60 454.5t73 500.5q-39 -55 -57 -82q-374 -579 -461 -777q-82 -75 -174 -75q-54 0 -72 78q-41 185 -170 798q-6 29 -12 43 q-6 -18 -14.5 -54.5t-9.5 -39.5q-181 -669 -181 -805q0 -68 27 -127q-107 -37 -186 -37q-123 0 -129 90z" />
<glyph unicode="N" horiz-adv-x="1503" d="M113 90q0 34 13.5 100t29 125t48 177.5t50.5 185.5q134 506 156 630q8 49 8 72q0 68 -37 117q58 44 118 69t105 25q66 0 114 -73.5t103 -253.5q214 -696 322 -916q16 47 33 109.5t28.5 110.5t29.5 127.5t28 119.5q98 409 98 578q0 96 -39 157q106 47 184 47 q123 0 123 -137q0 -36 -6 -71q-3 -22 -168.5 -677t-173.5 -708q-98 -33 -211 -33q-27 0 -57 38.5t-56 99.5q-110 276 -346 890q-6 15 -16 48t-16 49q-72 -270 -133.5 -562t-61.5 -364q0 -97 45 -154q-115 -45 -192 -45q-64 0 -93.5 28.5t-29.5 90.5z" />
<glyph unicode="O" d="M152 475q0 133 30 270t84 262.5t134.5 235.5t175.5 191.5t213 128.5t243 47q224 0 341.5 -136.5t117.5 -388.5q0 -129 -31 -264.5t-86.5 -261t-137.5 -236.5t-178.5 -193.5t-214.5 -130.5t-241 -48q-223 0 -336.5 134.5t-113.5 389.5zM469 506q0 -121 21.5 -208 t73.5 -137q42 -40 102 -40q14 0 30 2q91 14 172 90.5t137 185.5t97.5 237t61.5 248t20 216q0 156 -56 247t-172 91q-91 0 -182.5 -93.5t-157 -233t-106.5 -303.5t-41 -302z" />
<glyph unicode="P" horiz-adv-x="1224" d="M137 57q0 54 27 172q186 752 227 983q15 92 15 117q0 26 -10.5 35.5t-23.5 7t-23.5 6t-10.5 33.5q6 84 33 105q88 46 210.5 71t237.5 25q131 0 230 -19.5t175 -62.5t115 -118t39 -181q0 -161 -88.5 -297.5t-243.5 -216.5t-341 -80q-41 0 -60.5 42t-19.5 105q0 9 18 9 q197 0 311.5 103.5t114.5 295.5q0 132 -77 190t-220 58q-57 -5 -94 -13q18 -43 18 -92q0 -40 -16 -118q-21 -94 -83 -356t-91 -410q-43 -209 -43 -318q0 -55 20 -113q-38 -24 -99 -38.5t-124 -14.5q-123 0 -123 90z" />
<glyph unicode="Q" d="M160 473q0 133 30 270t84 262.5t134 235.5t175.5 191.5t213 128.5t241.5 47q224 0 342.5 -136.5t118.5 -388.5q0 -226 -87.5 -455t-250 -407.5t-360.5 -240.5q128 -58 166 -72q184 -70 284 -88q52 -10 99 -10q42 0 86 6q51 7 80 14q22 4 51 14q6 2 9.5 -1t2.5 -9 q-11 -30 -43 -70q-40 -56 -98 -100q-120 -102 -238 -102q-47 5 -88.5 16.5t-62 20.5t-70.5 35t-74 38q-50 25 -135.5 78.5t-110.5 67.5q-64 38 -127 63q-82 30 -182 49q-96 16 -135 39q-16 13 -16 41q0 16 18 23q35 13 86 20q-143 131 -143 420zM477 504q0 -120 21.5 -207.5 t73.5 -137.5q43 -40 103 -40q15 0 30 2q91 14 172 90.5t137 185.5t97.5 237t61 248t19.5 216q0 156 -56 247t-171 91q-91 0 -182.5 -93.5t-157.5 -233t-107 -303.5t-41 -302z" />
<glyph unicode="R" horiz-adv-x="1370" d="M133 61q6 64 8 76q31 140 115.5 482.5t114.5 492.5q30 147 30 211q0 42 -16 63t-51 44q31 91 177 136.5t353 45.5q240 0 375 -85.5t135 -260.5q0 -188 -127.5 -324t-345.5 -199q57 -144 114 -255t100 -175t92 -112t79 -67.5t72 -41.5q-25 -63 -94 -95t-150 -32 q-80 0 -131.5 41.5t-103.5 136.5q-55 100 -126.5 267.5t-123.5 314.5q-41 4 -68 16q-16 -75 -52 -232.5t-51.5 -239t-15.5 -128.5q0 -33 5.5 -70t5.5 -48q0 -22 -94 -37t-126 -15q-52 0 -76 20.5t-24 69.5zM594 891q0 -43 78 -43q184 0 293.5 100.5t109.5 272.5 q0 111 -65.5 167t-188.5 56q-69 0 -103.5 -9.5t-44 -24.5t-9.5 -46q24 -5 24 -33q0 -14 -2 -20q-11 -60 -42 -189t-44 -196q-1 -4 -2.5 -11.5t-2.5 -13.5t-1 -10z" />
<glyph unicode="S" horiz-adv-x="1181" d="M61 172q0 64 56.5 130t142.5 91q-2 -12 -2 -24q0 -22 6 -47q24 -92 105 -144.5t190 -52.5q133 0 210 66t77 188q0 124 -129 231q-31 26 -82 63.5t-86 63.5t-76.5 65.5t-66.5 76t-42.5 87t-17.5 107.5q0 118 50 220t134 170.5t195 107.5t231 39q316 0 316 -160 q0 -50 -42 -101.5t-93 -74.5q-54 85 -116 126.5t-159 41.5q-112 0 -176.5 -53.5t-64.5 -155.5q0 -36 9.5 -65.5t26.5 -55.5t58 -62.5t84.5 -71.5t125.5 -98q28 -21 42 -32q84 -76 127 -156.5t43 -183.5q0 -97 -39 -185.5t-105 -154.5t-151.5 -115.5t-181.5 -74.5t-191 -25 q-93 0 -183.5 23t-157.5 75t-67 121z" />
<glyph unicode="T" horiz-adv-x="894" d="M231 1380q0 106 51 156.5t154 50.5q106 0 310.5 -3t302.5 -3q73 0 131.5 7.5t119 21t80.5 16.5q4 -16 4 -31q-3 -113 -57.5 -168t-148.5 -55q-26 0 -104 4t-103 4q-30 0 -44 -7.5t-20 -29.5q-178 -759 -215 -935q-39 -187 -39 -269q0 -9 0.5 -17t1 -14t2.5 -14.5t3 -12.5 t4.5 -13.5t4.5 -12.5t5.5 -15t5.5 -15q-46 -29 -110 -43.5t-111 -14.5q-129 0 -129 101q0 88 32 208q26 103 129.5 540t116.5 507q9 44 10 55q-14 0 -40 1t-41 1q-138 0 -250 -59q-27 -18 -51 -18q-5 68 -5 77z" />
<glyph unicode="U" horiz-adv-x="1439" d="M178 326q0 50 6 96q14 102 103.5 490.5t93.5 476.5q0 36 -7 59t-23 47t-19 29q41 35 119 52t139 17q106 0 112 -92q0 -73 -31.5 -221.5t-83 -354t-71.5 -298.5q-41 -185 -41 -273q0 -90 37.5 -139t110.5 -49q66 0 141.5 44.5t148.5 131.5q68 93 131 326q55 201 109 432.5 t72 357.5q1 5 -4 41q-4 30 9.5 50t42.5 29t57 12t65 3q100 0 132 -15t32 -60q-1 -19 -7 -42t-18 -56.5t-18 -55.5q-222 -746 -222 -1038q0 -52 6 -93q13 -82 30.5 -129t51.5 -77q-101 -70 -218 -70q-18 0 -36 2q-40 4 -66 23t-37.5 51t-15 61t-3.5 72v72q-1 4 -2 4 q-59 -68 -109.5 -115.5t-112 -89.5t-130 -63t-144.5 -21q-73 0 -130.5 21t-94 56t-61 84t-34.5 101t-10 111z" />
<glyph unicode="V" horiz-adv-x="1316" d="M184 1495q114 97 260 100q59 0 98.5 -47t63.5 -153q19 -99 31 -187q41 -284 80 -788q224 357 343 566.5t177 359.5q40 92 40 161q0 24 -5 45q90 35 186 35q51 0 79 -18.5t30 -52.5q0 -10 -3 -24t-6 -22t-11 -30.5t-11 -30.5q-35 -95 -172 -311q-275 -434 -422.5 -683.5 t-208.5 -400.5q-12 -20 -78.5 -42.5t-113.5 -22.5q-31 0 -44.5 16.5t-19.5 59.5q-49 455 -108 909q-21 178 -66 354q-46 155 -119 207z" />
<glyph unicode="W" horiz-adv-x="1984" d="M221 1497q58 43 121.5 70.5t110.5 27.5q59 0 93.5 -38.5t55 -140t27.5 -288.5q14 -369 14 -604q0 -77 -2 -108q409 773 477 968q10 33 27 74q78 34 115.5 47.5t80.5 20.5q30 4 46 -17.5t16 -64.5q0 -26 -2 -83t-2 -87q0 -46 10.5 -422.5t13.5 -413.5l7 -86 q211 423 312.5 649t139.5 383q8 36 8 82q0 58 -18 113q49 16 115 16q93 0 137.5 -31.5t44.5 -99.5q-1 -50 -21 -117t-66 -162.5t-71.5 -145t-83.5 -158.5l-86 -160q-37 -69 -108 -198t-112 -205t-83 -160.5t-57 -128.5q-8 -18 -71 -42.5t-134 -33.5h-6q-57 0 -62 57 q-11 96 -67 936q-4 -1 -99 -177.5t-203 -380t-124 -232.5q-32 -55 -58 -127q-6 -18 -68 -42.5t-134 -33.5h-6q-61 0 -64 57q-11 426 -45 1123q-13 262 -115 360z" />
<glyph unicode="X" horiz-adv-x="1394" d="M141 82q0 81 160 307q144 204 291 354q-62 158 -109 351.5t-47 289.5q0 203 297 267q-5 -14 -5 -44q0 -70 27 -229q38 -226 111 -430q344 405 344 518q0 56 -18 93q75 34 162 34q139 0 139 -106q0 -89 -84 -209q-23 -33 -57 -73.5t-63.5 -73.5t-82.5 -87.5t-81.5 -83.5 t-94.5 -94.5t-90 -89.5q56 -170 188 -424q40 -75 100.5 -130.5t137.5 -80.5q-67 -85 -147.5 -128.5t-143.5 -43.5q-43 0 -85.5 32.5t-79.5 85t-77 135.5t-73 165t-72 193q-135 -138 -215 -311q-59 -127 -59 -200q0 -27 8 -46q-79 -27 -139 -27q-142 0 -142 86z" />
<glyph unicode="Y" horiz-adv-x="1189" d="M199 1479q135 129 268 129q121 0 172 -123q70 -162 160 -600q51 83 110.5 179t83 134t52.5 85.5t41.5 70t26 49t28.5 59.5q24 52 24 125q0 35 -6 70q20 4 60 4q106 0 162.5 -35.5t56.5 -97.5q0 -59 -36.5 -139.5t-99.5 -169t-122 -162.5t-131.5 -160t-100.5 -123 q-105 -141 -189.5 -341t-84.5 -304q0 -51 22 -111q-100 -51 -215 -51q-129 0 -129 94q0 53 29 130.5t65 146t71 157.5t44 158q-50 312 -139 538t-172 263q-10 4 -26.5 13t-24.5 12z" />
<glyph unicode="Z" horiz-adv-x="1310" d="M37 63q-5 16 -5 32q0 37 25 69q5 6 475.5 561.5t544.5 652.5q-218 -4 -325 -4q-26 0 -104 -4t-103 -4q-94 0 -149 56.5t-58 168.5q0 13 4 33q23 -4 81.5 -18t118.5 -22.5t132 -8.5q415 0 803 51q14 -51 14 -88q0 -40 -27.5 -89.5t-60 -88t-105.5 -119.5 q-65 -71 -901 -1051q217 -6 441 -6h147q184 0 301 99q2 -27 2 -76q0 -218 -203 -230q-86 -4 -127 -4q-95 0 -272 12t-197 13q-27 2 -77 2q-151 0 -306 -33q-50 22 -69 96z" />
<glyph unicode="[" horiz-adv-x="755" d="M205 -10q0 89 26 227q97 528 263 1188q19 85 106.5 127.5t192.5 42.5q31 0 89.5 5t86.5 5q12 0 20.5 -3.5t7.5 -10.5q-17 -80 -49 -135q-5 -7 -46.5 -13t-93.5 -14t-75 -18q-122 -494 -258 -1182q-16 -98 -16 -121q0 -53 27.5 -76.5t88.5 -23.5q77 0 134 6 q-5 -48 -19 -80.5t-31 -50t-48.5 -26.5t-57 -11t-70.5 -2q-59 0 -96 2.5t-75 12t-58.5 27.5t-34 48.5t-14.5 75.5z" />
<glyph unicode="\" horiz-adv-x="901" d="M152 1587q74 8 98 8q56 0 94 -15t60.5 -37.5t54.5 -69.5q95 -185 276 -779q210 -675 213 -768q7 -51 -23.5 -68.5t-90.5 -17.5q-23 0 -69 2t-65 2q10 221 -176 846q-102 324 -203.5 569t-168.5 328z" />
<glyph unicode="]" horiz-adv-x="755" d="M-27 -92q0 36 17 86q55 -6 131 -6q60 0 96 23t62 77q5 28 32 121q110 481 238 1182q-21 10 -72 18t-89.5 13.5t-39.5 13.5q-3 30 8 135q3 14 35 14q28 0 84.5 -5t87.5 -5q105 0 174.5 -42.5t57.5 -127.5q-132 -715 -236 -1188q-10 -47 -23 -91t-26.5 -84t-17.5 -52 q-26 -56 -58.5 -90t-79.5 -50t-93 -21t-120 -5q-35 0 -56 1t-45 5.5t-37 13.5t-21.5 25t-8.5 39z" />
<glyph unicode="^" horiz-adv-x="1193" d="M143 664q25 32 64 71q147 147 284 329.5t214 336.5q18 37 51 74q22 -4 40.5 -12t31.5 -14.5t25 -22t18.5 -23t15 -29.5t11.5 -29.5t11.5 -35.5t10.5 -35q48 -147 126 -329.5t134 -282.5q-27 -27 -62 -27q-220 0 -385 459q-145 -203 -272.5 -315t-251.5 -144h-4 q-15 0 -34.5 7.5t-27.5 21.5z" />
<glyph unicode="_" horiz-adv-x="974" d="M55 -213q2 9 5 25.5t4 22.5t3.5 18t4 16t3.5 12.5t4 12t5 9t6.5 9.5t7.5 8q12 -4 19 -4q84 -8 254 -8h129q46 0 107 1t75 1q193 0 223 -62q-13 -81 -33 -143q-6 0 -18.5 2.5l-17.5 3.5q-131 15 -246 15q-17 0 -60 -1t-69 -1h-127q-242 0 -279 63z" />
<glyph unicode="`" horiz-adv-x="899" d="M434 1501q0 43 77.5 83.5t164.5 27.5q6 -9 29.5 -44.5t33.5 -49.5t30.5 -40.5t40.5 -46.5t44 -40q13 -10 49.5 -36t56 -42t19.5 -23q0 -18 -31 -29t-57 -6q-185 37 -321 110.5t-136 135.5z" />
<glyph unicode="a" horiz-adv-x="1183" d="M76 270q3 146 58.5 298.5t143.5 273t206.5 197.5t238.5 77q127 0 201 -57q50 53 129 53q89 0 182 -49q-56 -83 -128.5 -368.5t-72.5 -407.5q0 -18 1 -31.5t3 -27t7 -21t12 -6.5q22 3 43 19t57 52q93 103 125 103q10 0 10 -19q0 -54 -36.5 -121t-90 -121.5t-118 -92 t-117.5 -37.5q-87 0 -134.5 54.5t-47.5 162.5q0 94 10 166q-231 -376 -439 -385h-22q-221 0 -221 288zM375 303q6 -106 67 -106q59 0 185 188q75 109 139 234.5t100 224.5q-16 59 -63.5 89t-100.5 30q-78 0 -156 -109.5t-124.5 -263.5t-46.5 -287z" />
<glyph unicode="b" horiz-adv-x="1150" d="M39 39q51 81 96 240q151 632 193 839q37 182 37 252q0 50 -21 96q111 64 215 64q46 0 76.5 -23t30.5 -73q0 -60 -44 -258.5t-116 -460.5q126 205 251.5 306t237.5 101q209 0 209 -293q0 -110 -32 -229.5t-92 -228.5t-137.5 -196t-177.5 -139t-204 -52q-123 0 -221 61 q-50 -53 -139 -53q-79 0 -162 47zM401 260q4 -57 56.5 -89t117.5 -32q70 0 141.5 82.5t122 214.5t66.5 275q4 40 4 71q0 123 -67 123q-47 0 -139 -117t-176.5 -267.5t-125.5 -260.5z" />
<glyph unicode="c" horiz-adv-x="933" d="M92 326q0 151 56.5 295.5t150.5 253.5t223.5 176t268.5 67q258 0 258 -129q0 -56 -53 -101t-140 -73q-20 90 -52 125t-93 35q-132 0 -216.5 -160.5t-84.5 -433.5q0 -102 38 -166.5t117 -64.5q108 0 210 49t173 133q17 -33 17 -70q0 -62 -54 -117.5t-133.5 -90t-164 -54.5 t-152.5 -20q-369 0 -369 346z" />
<glyph unicode="d" horiz-adv-x="1185" d="M78 254q0 142 53 294.5t139.5 275.5t207.5 202.5t247 79.5q102 0 197 -53q47 183 47 315q0 55 -21 90q109 62 209 62q115 0 115 -115q0 -66 -27 -184q-32 -139 -92.5 -374t-85.5 -354t-25 -198q0 -45 23 -86q31 6 100 72q92 102 123 102q12 0 12 -18q0 -73 -60 -161.5 t-146 -149t-156 -60.5q-184 0 -184 223q0 76 12 158q-121 -199 -245.5 -296t-235.5 -97q-96 0 -151.5 74t-55.5 198zM375 303q6 -106 65 -106q41 0 106 71t142 199q101 162 182 346q-10 59 -57 97t-106 38q-79 0 -157.5 -99.5t-126.5 -250.5t-48 -295z" />
<glyph unicode="e" horiz-adv-x="983" d="M92 295q-1 18 -1 37q0 140 47 270q53 148 159 264q102 122 230.5 187t265.5 65q129 0 191 -54q61 -52 60 -153v-6q0 -107 -127 -225.5t-329 -190.5q-29 -10 -60 -24t-64 -32t-54.5 -39t-22.5 -40v-16q0 -67 23 -102q34 -50 86 -76q41 -20 86 -20q12 0 24 1 q105 10 192.5 55.5t170.5 125.5q19 -33 19 -70v-12q-4 -44 -32 -80q-57 -70 -153 -111q-150 -69 -324 -69q-182 0 -281 79t-106 236zM408 494q6 14 14.5 26.5t15.5 22t20 20t20 16t24 15.5t23.5 13.5t27.5 15t27 14.5q90 50 130.5 99.5t57.5 111.5q7 25 7 46q1 27 -11 49 q-20 38 -74 38q-83 0 -150.5 -102t-111.5 -293q-8 -35 -20 -92z" />
<glyph unicode="f" horiz-adv-x="813" d="M-47 -303q1 9 22 33q77 63 128.5 149t70.5 184q105 562 150 764h-43q-40 0 -76.5 11.5t-36.5 31.5q0 2 1 5t1 4q18 51 35 72t51 30.5t104 9.5q4 16 8 33.5t9 38t8 31.5q36 146 132 252t226 158t281 52q94 0 144.5 -24t50.5 -88q0 -35 -40.5 -74.5t-115.5 -75.5 q-55 117 -156 117q-37 0 -81 -26.5t-68 -61.5q-61 -89 -109 -332h76q41 0 122 7.5t116 7.5q2 -8 2 -25q0 -152 -242 -152q-19 0 -56 1t-55 1q-12 -51 -44 -211t-62 -277t-70 -234q-53 -151 -164.5 -266.5t-261.5 -172.5q-16 -4 -20 -4q-37 0 -37 31z" />
<glyph unicode="g" horiz-adv-x="1175" d="M-80 -211q0 27 10 53t38 54t71 48.5t116 34t167 13.5q177 0 342 -33q52 142 120 471q-126 -178 -249 -261t-234 -83q-105 0 -154 76.5t-49 206.5q0 110 31 219.5t89 203.5t134.5 167t174.5 115t202 42q121 0 217 -57q60 51 141 51q78 0 164 -45q-39 -59 -71 -154.5 t-72 -271.5q-61 -313 -111 -510q-37 -146 -86 -242q92 -35 166 -86q78 -52 78 -65q-4 0 -16.5 6.5t-35 19t-42.5 21.5q1 0 -29 13.5t-72.5 31t-68.5 25.5q-78 -129 -212 -199t-304 -70q-112 0 -218 29t-171.5 76.5t-65.5 99.5zM127 -104q0 -10 6 -19q46 -66 116.5 -103.5 t151.5 -37.5q113 0 185 78q32 37 61 102q-146 31 -323 31h-15h-41t-40 -1.5t-39.5 -4.5t-30.5 -8.5t-23.5 -15t-7.5 -21.5zM397 393q0 -43 17.5 -66.5t46.5 -23.5q89 0 215 168.5t213 382.5q-6 40 -62.5 74.5t-113.5 34.5q-84 0 -158 -84t-116 -215t-42 -271z" />
<glyph unicode="h" horiz-adv-x="1196" d="M41 8q213 558 311 1327q0 4 1 11t1 10q0 42 -24 94q118 66 221 66q46 0 74 -25.5t28 -71.5q0 -12 -2 -18q-4 -54 -49.5 -284.5t-107.5 -475.5q70 126 155.5 228t185.5 167.5t189 65.5q145 0 145 -166q-1 -58 -27 -173.5t-51.5 -245.5t-25.5 -224q0 -88 25 -88 q32 0 100 71q58 60 82.5 81.5t40.5 21.5q12 0 12 -17q0 -71 -60 -159.5t-146.5 -150.5t-157.5 -62q-87 0 -135 54t-48 161q0 152 41 301q49 171 53 287q0 24 -7.5 43.5t-24.5 19.5q-68 0 -199.5 -209.5t-271.5 -544.5q-25 -60 -60 -85t-110 -25q-52 0 -158 16z" />
<glyph unicode="i" horiz-adv-x="606" d="M131 176q12 -188 182 -188q80 0 184 80.5t146 179.5q33 76 33 110q0 19 -12 19q-28 0 -123 -103q-75 -71 -101 -71q-22 0 -22 88q0 109 31 248q8 36 79 301q14 50 23 102q3 16 3 31q0 46 -28 76q-30 32 -102 32q-90 0 -205 -43q31 -48 31 -102q0 -60 -10 -111 q-42 -227 -68 -319q-27 -102 -36 -193q-6 -63 -6 -104q0 -19 1 -33zM338 1268q0 25 17 119q16 89 16 134v5q0 4 -2 8.5t-5 10.5t-4 9q132 52 279 52q46 0 71 -15t27 -39q0 -14 -2 -24q-12 -48 -82 -156q-28 -43 -38 -59t-29.5 -38.5t-25 -27t-28 -14.5t-35.5 -12.5 t-51 -10.5q-22 -5 -39 -5q-28 1 -44 13q-25 20 -25 50z" />
<glyph unicode="j" horiz-adv-x="593" d="M-315 -285q0 96 76.5 152.5t203.5 56.5q36 0 94 -8q48 102 101 285q24 85 82.5 338.5t70.5 318.5q9 46 9 78q0 54 -31 102q115 43 205 43q57 0 94 -25t37 -81q0 -27 -27 -133q-46 -182 -166 -639q-57 -217 -135 -340q40 -11 108 -34t68 -26q0 -4 -16 -4q-2 0 -13.5 -0.5 t-17.5 0t-21.5 2t-31.5 4t-42.5 8t-58.5 13.5q-172 -238 -407 -238q-76 0 -129 34t-53 93zM-219 -188q0 -22 33 -33.5t75 -11.5q22 0 43 6q48 11 105 102q-15 0 -41 2t-39 2q-75 0 -125.5 -21.5t-50.5 -45.5zM410 1268q0 25 16 116.5t16 135.5q0 11 -10 34q132 52 279 52 q45 0 71.5 -15t26.5 -39q0 -34 -17 -69t-67 -111q-28 -43 -38 -59t-29.5 -38.5t-25 -27t-28 -14.5t-35.5 -12.5t-51 -10.5q-28 -4 -37 -4q-37 0 -54 18.5t-17 43.5z" />
<glyph unicode="k" horiz-adv-x="1085" d="M45 8q213 558 311 1327q0 4 1 11t1 10q0 42 -24 94q106 59 209 66h12q46 0 73 -27t27 -76l-6 -34q-76 -439 -162 -783q370 512 553 512q102 0 117 -201q-186 0 -418 -266q0 -3 -1 -11t-1 -12q0 -22 11 -59q17 -53 32.5 -92.5t40 -86.5t50.5 -76.5t62.5 -50t78.5 -20.5 q75 0 176 64l8 4q4 0 4 -8q0 -6 -4 -14q-42 -108 -144.5 -194.5t-195.5 -86.5t-171 103t-161 345q-15 -27 -28 -54t-28.5 -62.5t-26 -60.5t-32.5 -79t-36 -88q-23 -59 -59.5 -84.5t-110.5 -25.5q-52 0 -158 16z" />
<glyph unicode="l" horiz-adv-x="675" d="M33 326q-1 0 -1 1q0 4 23 25q28 26 78 70l19 16q109 464 262 973q17 51 69 88q39 27 88 27h13q98 -7 174 -64q13 -13 16 -30v-4q1 -3 2 -9.5t2 -14.5t1.5 -20.5t0.5 -25.5q0 -45 -4 -72q-12 -103 -92 -289q-76 -173 -211 -350l-2 -12q-11 -51 -14 -60q-51 -240 -51 -286 q0 -86 20 -86q81 0 152 51q15 11 37.5 28t36 27t31 22.5l28 20t22 14.5t18.5 10t11 3q5 0 5 -6q0 -23 -69 -135q-66 -104 -191 -177t-208 -73q-85 0 -133.5 47t-48.5 139v9q0 46 18 163q4 15 8 53q-102 -73 -110 -73zM502 762q87 128 143 260q78 174 88 272q3 38 3 59 q0 11 -1 17q-1 15 -15 19q-3 1 -6 1q-10 0 -16 -10q-11 -17 -16 -34q-47 -123 -92 -277q-34 -103 -88 -307z" />
<glyph unicode="m" horiz-adv-x="1792" d="M51 10q111 272 171.5 531.5t60.5 380.5q0 74 -25 135q132 57 215 57q47 0 79 -27t32 -73q0 -77 -68 -340q136 212 275.5 329t238.5 117q62 0 101.5 -34t39.5 -99q0 -173 -47 -309q133 213 272 327.5t236 114.5q61 0 100.5 -43t39.5 -104q0 -96 -32.5 -238t-65 -266.5 t-32.5 -179.5q0 -88 21 -88q24 0 74.5 44t95 88t53.5 44q12 0 12 -19q0 -71 -60 -159.5t-146.5 -150.5t-157.5 -62q-86 0 -132 45.5t-46 138.5q1 38 8.5 81.5t22 107.5t18.5 85q78 350 78 383q0 35 -31 35q-45 0 -146 -138t-195.5 -327t-117.5 -315q0 -23 8 -47 q-17 -13 -62 -28t-81 -15q-85 0 -143 61q21 87 53 221.5t49 205t35.5 153t26.5 128t8 66.5q0 37 -33 37q-37 -1 -103 -82t-161 -223q-13 -19 -25 -40t-22 -38t-24 -47t-22 -47.5t-25.5 -59.5t-26 -62.5t-32 -77t-34.5 -83.5q-25 -60 -59.5 -86t-108.5 -26q-58 0 -160 18z " />
<glyph unicode="n" horiz-adv-x="1206" d="M47 8q67 167 121 346q111 366 111 568q0 83 -23 133q125 57 215 57q44 0 76.5 -24t32.5 -74q0 -18 -2 -38t-6.5 -46t-8 -46.5t-12 -56t-13.5 -56t-16 -65t-16 -65.5q65 122 152.5 229t187.5 177.5t182 70.5q69 0 112.5 -42t43.5 -107q0 -119 -68 -398q-61 -210 -61 -280 q0 -88 22 -88q31 0 99 71q81 84 102 96q11 7 20 7q13 0 13 -17q0 -73 -60.5 -162t-147 -149.5t-155.5 -60.5q-85 0 -134.5 47t-49.5 141q0 25 4 55.5t8 50.5t14.5 65t14.5 63q82 357 82 409q0 45 -31 45q-75 0 -252 -280q-69 -112 -107 -195t-120 -287q-23 -59 -59.5 -84.5 t-110.5 -25.5q-54 0 -160 16z" />
<glyph unicode="o" horiz-adv-x="1095" d="M100 360q0 295 199 529q206 229 465 229q169 0 272 -98t103 -266q0 -143 -53 -283.5t-141.5 -248.5t-212.5 -175t-257 -67q-171 0 -273 101.5t-102 278.5zM401 338q0 -97 33 -153t103 -56q64 0 121.5 64t95 160t59 203t21.5 198q0 213 -132 213q-52 0 -100.5 -42.5 t-84 -111t-62.5 -152t-40.5 -167.5t-13.5 -156z" />
<glyph unicode="p" horiz-adv-x="1173" d="M23 -291q0 46 12 101q6 25 51.5 218t96.5 411.5t59 250.5q43 183 43 291q0 49 -21 96q117 53 211 53q117 0 117 -94q0 -54 -70 -321q40 63 77 114.5t85.5 106t96 91t104.5 60t114 23.5q16 0 52 -4q56 -8 95 -52t55 -101.5t16 -123.5q0 -117 -34.5 -238.5t-97.5 -227 t-144.5 -189t-182 -132t-203.5 -48.5q-108 0 -193 39q-45 -172 -45 -285q0 -28 21 -102q-104 -52 -193 -52q-122 0 -122 115zM410 252q9 -41 59.5 -69.5t105.5 -28.5q83 0 160.5 90.5t125 225.5t54.5 273v25q0 125 -63 125q-50 0 -142 -114t-175.5 -263.5t-124.5 -263.5z " />
<glyph unicode="q" horiz-adv-x="1157" d="M80 270q0 137 51 287t135 274.5t205.5 205.5t251.5 81q120 0 221 -61q50 53 139 53q79 0 162 -47q-51 -81 -96 -240q-3 -14 -34.5 -144.5t-45 -189t-39.5 -171.5t-44.5 -204.5t-33.5 -176.5q-22 -115 -22 -199q0 -48 10 -103q-103 -41 -170 -41q-131 0 -131 111 q0 32 12 94q60 300 119 576q-123 -200 -246 -297.5t-235 -97.5q-209 0 -209 290zM375 319q0 -122 67 -122q47 0 139 117t176.5 267.5t125.5 260.5q-4 57 -56.5 89t-117.5 32q-72 0 -150.5 -95t-131 -247t-52.5 -302z" />
<glyph unicode="r" horiz-adv-x="980" d="M96 516q77 92 111.5 177t40.5 198q-55 20 -76 62q-14 28 -14 57q0 15 4 30q10 45 33 86t56 65q27 20 49 20q5 0 9 -1q0 -7 -5 -26q-7 -24 -7 -41q0 -20 9 -32q27 -36 138 -36q97 0 258 27l40.5 9t45 7.5t51.5 1t44 -11t39.5 -27.5t21.5 -49q6 -21 6 -48v-23 q-4 -42 -10 -73t-20 -73.5t-26 -73.5t-27.5 -72.5t-24.5 -70.5t-32.5 -102.5t-34 -114t-13.5 -74.5q0 -4 -1 -12q-1 -21 -1 -31.5t1.5 -25t6 -20.5t12.5 -5q4 0 8 1.5t9.5 4.5t10.5 6t11.5 8t12 9t13.5 10.5t13.5 11t15 12.5t15.5 13q105 109 134 109q11 0 11 -16 q0 -32 -43 -120q-51 -102 -162.5 -187t-193.5 -85q-90 0 -138 48q-38 39 -38 109q0 17 2 37q9 95 69 283q11 42 65.5 204.5t59.5 178.5q14 46 11 52.5t-17 4.5q-72 -16 -180 -16q-33 -97 -74 -172q-67 -120 -129 -168q-62 -46 -118 -46q-27 0 -52 11z" />
<glyph unicode="s" horiz-adv-x="825" d="M10 238q0 48 24.5 81.5t57.5 51.5q39 -106 101.5 -174t148.5 -72q74 0 116 41.5t42 122.5q0 28 -8.5 53.5t-28 52.5t-35 45.5t-46.5 51t-46 49.5q-82 97 -82 223q0 76 29.5 140t79 107.5t115 74t135.5 44t143 13.5q56 0 81.5 -13.5t34.5 -48.5q0 -64 -79 -120 q-59 59 -119 59q-119 0 -119 -127q0 -53 53 -119q3 -3 26 -30.5t27 -33t23.5 -30.5t24.5 -33.5t20.5 -31.5t20 -35.5t14 -34.5t13 -39.5t6.5 -39.5t3 -44q0 -120 -66.5 -221t-175 -158t-231.5 -57q-73 0 -141 28.5t-115 88t-47 135.5z" />
<glyph unicode="t" horiz-adv-x="733" d="M143 258q0 34 13 127q25 153 67 326q92 352 92 501q0 63 -22 113q119 68 221 68q48 0 74 -27t26 -74l-1 -9q-17 -124 -48 -284h86q90 0 195 15v-13q0 -71 -50 -117t-122 -46q-21 0 -49.5 1t-46.5 1q-32 0 -48 -4q-38 -187 -73 -318q-33 -126 -33 -219q6 -98 80 -98 q30 0 104 78q98 104 125 104q10 0 10 -18q0 -53 -36 -120t-89.5 -122t-118.5 -93t-118 -38q-238 0 -238 266z" />
<glyph unicode="u" horiz-adv-x="1206" d="M139 190q0 81 74 390t74 385q0 63 -21 104q110 43 201 43q119 0 119 -113q0 -28 -21 -125q-18 -80 -47.5 -200t-45 -185.5t-28 -133.5t-12.5 -103q0 -53 39 -53q44 0 129 97.5t168 246.5q158 289 158 471q0 39 -15 69q85 29 176 29q125 -8 125 -111q0 -57 -26 -153 q-10 -35 -33 -116.5t-34.5 -124.5t-26 -105.5t-21 -110.5t-6.5 -90q0 -88 22 -88q25 0 76 44t95 88t53 44q12 0 12 -18q0 -71 -60 -160t-147 -151t-158 -62q-88 0 -135 55t-47 164q0 53 19 158q-121 -197 -238.5 -296t-239.5 -99q-54 0 -91.5 17.5t-55 49.5t-24.5 65.5 t-7 77.5z" />
<glyph unicode="v" horiz-adv-x="1036" d="M117 1036q124 76 229 76q134 0 146 -186q26 -195 26 -535q0 -92 -2 -139q152 199 277 426q114 202 114 344q0 29 -14.5 70t-32.5 61q38 6 76 6q113 0 163 -33.5t50 -115.5q0 -143 -215 -475q-88 -136 -155 -226t-145.5 -170.5t-157.5 -119.5t-163 -39q-29 0 -43 4 q0 14 2 51t2 55v24q0 110 -16 276q-18 186 -47 360q-24 136 -43 198.5t-51 87.5z" />
<glyph unicode="w" horiz-adv-x="1505" d="M158 1044q121 68 207 68q34 0 57 -11.5t36.5 -29.5t22.5 -56t13 -74t8 -101q12 -159 12 -412v-96q297 361 297 665q0 35 -8 54q93 41 174 41q75 0 92.5 -83t17.5 -309q0 -276 -8 -448q128 170 217.5 377.5t89.5 345.5q0 45 -17.5 99t-53.5 87q37 6 76 6q117 0 176 -36 t59 -119q0 -42 -29 -128.5t-76.5 -192t-114 -220.5t-137 -213t-149.5 -169t-147 -89q-12 -4 -22 -6t-24 -3t-21.5 -1.5t-29.5 -1t-34 -0.5q8 78 8 215q0 121 -8 379q-156 -336 -330 -510q-48 -48 -114 -65t-152 -17q12 84 12 270q0 296 -18 514q-13 167 -82 270z" />
<glyph unicode="x" horiz-adv-x="999" d="M29 88q0 144 358 447q-20 54 -51 143t-46.5 131t-38 86t-44.5 63q25 54 85.5 90.5t123.5 36.5q56 0 92 -45t51 -112q24 -105 70 -246q268 278 268 420q0 12 84 12q123 0 123 -82q0 -75 -104.5 -199t-305.5 -313q56 -151 134 -265.5t147 -150.5q-111 -120 -238 -120 q-72 0 -139 96t-143 287q-97 -87 -156 -179.5t-59 -164.5q0 -24 8 -43q-21 -3 -43 -3q-75 0 -125.5 30.5t-50.5 80.5z" />
<glyph unicode="y" horiz-adv-x="1044" d="M-158 -311q0 53 37 133q14 -12 46 -22.5t57 -10.5q91 0 181 66t165 174q18 26 18 94q0 40 -8 102q-89 723 -203 811q127 76 232 76q120 0 143 -168q49 -329 72 -665q157 222 251.5 412.5t94.5 297.5q0 29 -14.5 70t-32.5 61q38 6 75 6q112 0 163.5 -34t51.5 -105 q0 -96 -146 -344t-392 -571q-145 -193 -264.5 -307.5t-203.5 -155.5t-165 -41q-138 0 -156 98q-2 6 -2 23z" />
<glyph unicode="z" horiz-adv-x="931" d="M35 33q0 101 67 174q1 1 101.5 112t145.5 162t134.5 157.5t163.5 201.5q-140 -11 -221 -11q-97 0 -145 29.5t-48 75.5q0 32 28 85t67 103q101 -61 346 -61q180 0 362 37q6 -24 6 -51q0 -76 -49 -134q-39 -45 -177.5 -204.5t-168.5 -192.5q-35 -39 -155 -163t-166 -187 q142 -3 336 -137q67 -46 148.5 -73.5t143.5 -27.5q89 0 154 62q12 -38 12 -74q0 -103 -72.5 -173.5t-173.5 -70.5q-56 0 -120.5 30t-114 68t-115 83.5t-114.5 66.5q-121 51 -246 51q-54 0 -119 -10q-10 38 -10 72z" />
<glyph unicode="{" horiz-adv-x="718" d="M178 784q44 -10 80 2q62 17 105.5 98.5t76.5 235.5q20 90 49 185q43 143 124.5 217.5t189.5 83.5q99 7 156.5 -20.5t60.5 -82.5q-86 8 -156.5 -38t-97.5 -130q-47 -133 -78 -280q-5 -30 -22 -90q-40 -107 -107 -161.5t-164 -80.5q-20 -5 -51 -16l62 -25q151 -59 151 -209 q0 -53 -16 -135q-2 -11 -10 -47t-13 -55q-20 -90 -20 -160q0 -75 27.5 -109.5t92.5 -34.5q26 0 72 11q-7 -62 -65.5 -94.5t-141.5 -32.5q-55 0 -96 10q-170 49 -170 227q3 109 47 246q41 137 41 215t-63 123q-37 23 -54.5 63.5t-9.5 83.5z" />
<glyph unicode="|" horiz-adv-x="591" d="M98 -94q3 14 8 36t13.5 60t15.5 68q13 53 70 293.5t123 520.5t71 302q39 153 58 278q13 69 16 111q5 0 14.5 1t14.5 1q92 0 188 -59q-23 -111 -51 -228q-3 -12 -115.5 -473t-163.5 -682q-38 -162 -47 -225q-6 -30 -6 -66q-38 -10 -65 -10q-34 0 -136 23q-8 20 -8 39v10z " />
<glyph unicode="}" horiz-adv-x="718" d="M-70 -57q42 -11 68 -11q65 0 107 34.5t75 109.5q29 67 53 160q2 19 9.5 54.5t9.5 47.5q24 88 47 135q60 149 240 209l75 25q-27 11 -45 16q-86 26 -128.5 80.5t-34.5 161.5q3 45 14 90q34 149 47 280q9 84 -42 130t-140 38q28 55 97 82.5t165 20.5q188 -16 188 -232 q0 -44 -4 -69q-26 -154 -33 -185q-30 -126 -30 -202q0 -115 65 -132q30 -12 78 -2q-9 -42 -44.5 -82.5t-82.5 -64.5q-89 -51 -117 -123q-33 -65 -53 -215q-22 -157 -61 -246q-76 -177 -271 -227q-44 -10 -100 -10q-83 0 -127 32.5t-25 94.5z" />
<glyph unicode="~" horiz-adv-x="1187" d="M135 623q0 102 84.5 173.5t243.5 71.5q56 0 152 -42t182 -84t118 -42q61 0 104.5 43t45.5 105q121 -8 121 -94q0 -126 -93 -204t-237 -58q-54 7 -152 49.5t-184.5 81.5t-116.5 39q-61 0 -105.5 -43t-47.5 -105q-49 0 -80 31q-35 30 -35 78z" />
<glyph unicode="&#xa1;" horiz-adv-x="694" d="M94 -383q0 54 29 164q31 127 72.5 290t59.5 236t37.5 155t26.5 119.5t7 55.5q0 23 -7 51q46 4 66 4q158 0 170 -88q0 -70 -14 -141q-127 -596 -138 -762q-6 -75 13 -158q-117 -43 -189 -43q-66 0 -99.5 28t-33.5 89zM350 952q0 19 27 119q83 57 180 57q54 0 81.5 -25 t27.5 -67q0 -33 -10.5 -75.5t-10.5 -55.5q0 -16 2 -26q-88 -43 -160 -43q-66 0 -101.5 30t-35.5 86z" />
<glyph unicode="&#xa2;" horiz-adv-x="929" d="M96 395q20 233 160 432q165 225 422 281q18 90 20 139q1 8 2 25.5t2 25.5q10 0 25.5 1t20.5 1q100 0 100 -40q0 -11 -29 -140q248 -9 248 -129q0 -68 -52 -116t-122 -48q3 48 -27 89t-78 47q-71 -364 -155 -811q88 11 179 62t146 103q9 -27 9 -57q0 -32 -13 -65 q-29 -76 -120 -128t-232 -77q-21 -102 -24 -160q0 -8 -1.5 -23.5t-1.5 -23.5q-16 -2 -45 -2q-44 0 -75 16q-27 19 -21 62q0 1 11 46.5t16 74.5q-197 12 -289 114q-91 105 -76 301zM387 430q0 -93 28.5 -164.5t84.5 -95.5q17 87 151 793q-102 -45 -171 -165t-89 -292 q-4 -25 -4 -76z" />
<glyph unicode="&#xa3;" horiz-adv-x="1245" d="M72 31q0 59 22 123q2 4 10 9t20.5 11t16.5 8q113 52 171 115.5t89 164.5t56 296h-66q-95 0 -172 -23q18 78 36.5 109t57.5 41q56 16 162 16q38 341 208.5 525t440.5 184q228 0 228 -135q0 -34 -30.5 -85.5t-74.5 -86.5q-36 63 -61 85q-49 44 -135 44q-32 0 -58.5 -6.5 t-48.5 -20.5t-39.5 -30.5t-32 -43.5t-25.5 -51.5t-20.5 -62.5t-16 -68.5t-13 -77.5t-11 -81.5t-10.5 -87.5v-1h74q148 0 291 21q-14 -84 -85 -125t-218 -41q-18 0 -46 1t-38 1q-57 -230 -133 -353.5t-234 -214.5q39 2 185 11.5t208 9.5h119q155 11 203 63q49 -11 49 -69 q0 -85 -49 -163.5t-123 -78.5q-28 0 -228 19.5t-323 19.5q-64 -3 -163 -16t-122 -13q-36 0 -53.5 12.5t-17.5 45.5z" />
<glyph unicode="&#xa5;" horiz-adv-x="1247" d="M213 1487q135 129 268 129q122 0 172 -121q21 -48 42 -125t32.5 -131.5t36 -177t33.5 -168.5q84 136 156.5 248.5t101.5 156.5t54.5 87t45.5 88q25 51 25 122q0 37 -6 72q20 2 59 2q106 0 162.5 -35.5t56.5 -95.5q0 -56 -40 -131.5t-108.5 -157.5t-136 -154.5 t-145.5 -154t-115 -125.5q255 4 344 21q-23 -84 -48.5 -113.5t-72.5 -34.5q-114 -4 -313 -8q-47 -87 -76 -199q290 4 340 19q-23 -76 -45.5 -103t-62.5 -30q-55 -3 -260 -7q-25 -137 -25 -221q0 -45 23 -112q-102 -52 -215 -52q-129 0 -129 95q0 80 104 292q-133 0 -203 -18 q13 92 38 118.5t93 26.5q59 0 129 -4q52 118 47 179q0 12 -2 20h-71q-210 0 -283 -20q17 101 45.5 130t104.5 29q43 0 184 -6q-44 249 -129 431t-160 216q-10 4 -26.5 12t-24.5 11z" />
<glyph unicode="&#xa6;" horiz-adv-x="591" d="M98 -104q34 159 70 303q41 150 76 346q0 21 -4 33q18 4 53 4q81 0 164 -54q-7 -67 -70 -299q-60 -238 -72 -325q-2 -16 -2 -54q-30 -6 -57 -6q-79 0 -158 52zM336 891q1 3 3 8t3 8q16 102 64 289q38 142 75 344q0 21 -4 35q32 4 49 4q83 0 168 -55q-23 -130 -78 -332 q-51 -197 -63 -295q-2 -10 -2 -35v-16q-30 -6 -59 -6q-79 0 -156 51z" />
<glyph unicode="&#xa7;" horiz-adv-x="1202" d="M123 -35q0 47 29 97t75 81q103 -184 267 -184q95 0 145.5 44.5t50.5 129.5q0 24 -5 44t-21.5 40.5t-30.5 34.5t-48.5 38t-58 38.5t-78.5 48t-90 55.5q-139 102 -139 248q0 120 75 210t208 144q-41 49 -56.5 94t-15.5 109q0 112 70 199t179 130.5t234 43.5 q81 0 143.5 -14.5t103 -47.5t42.5 -82q0 -46 -25.5 -86t-86.5 -86q-22 30 -26 35.5t-23 30t-25.5 29.5t-24.5 22t-30 21.5t-31 12.5t-39 10.5t-43 2.5q-86 0 -132 -43t-46 -125q0 -65 47 -107t223 -149q7 -4 11 -6.5t10.5 -6.5t11.5 -7q157 -108 157 -260q0 -120 -71 -212 t-199 -147q76 -88 76 -211q0 -114 -73 -203t-185.5 -133.5t-239.5 -44.5q-138 0 -224.5 39t-90.5 123zM461 750q0 -80 82.5 -144t210.5 -104q141 58 141 182q-2 53 -48.5 103t-108 83t-134.5 58q-65 -24 -104 -71.5t-39 -106.5z" />
<glyph unicode="&#xa8;" horiz-adv-x="899" d="M346 1376q0 45 12.5 92t12.5 60q84 43 153 43q59 0 93 -27.5t34 -77.5q0 -48 -35 -135q-82 -49 -163 -49q-46 0 -76.5 22t-30.5 72zM788 1376q0 45 12.5 92t12.5 60q84 43 154 43q59 0 93 -27.5t34 -77.5q0 -48 -35 -135q-82 -49 -164 -49q-46 0 -76.5 22t-30.5 72z" />
<glyph unicode="&#xa9;" horiz-adv-x="1816" d="M420 856q0 311 173.5 501.5t463.5 190.5q240 0 374 -125.5t134 -361.5q0 -199 -74 -356t-220.5 -250t-344.5 -93q-241 0 -373.5 124.5t-132.5 369.5zM569 868q0 -186 96.5 -284.5t278.5 -98.5q148 0 257 75.5t162.5 201.5t53.5 285q0 183 -102.5 278.5t-292.5 95.5 q-107 0 -194.5 -44.5t-143 -121t-85.5 -176t-30 -211.5zM688 870q0 121 53 225.5t146 167t203 62.5q87 0 135.5 -31.5t48.5 -83.5q0 -46 -31 -77q-44 -38 -100 -27q-4 45 -26 69.5t-56 24.5q-77 0 -127.5 -96.5t-50.5 -237.5q0 -67 31 -105t92 -38q98 0 194 106 q24 -19 25.5 -54.5t-13.5 -57.5q-35 -50 -99.5 -90.5t-147.5 -40.5q-277 0 -277 284z" />
<glyph unicode="&#xaa;" horiz-adv-x="1019" d="M190 1069q0 98 41.5 188t106 150.5t141 97.5t148.5 39q72 0 137 -39q43 37 100 37q69 0 137 -47q-44 -58 -84 -177.5t-40 -197.5q0 -21 10 -37t29.5 -27.5t33.5 -17t37 -12.5q-19 -63 -70.5 -102t-117.5 -39q-86 0 -113 49.5t-27 163.5q-162 -221 -309 -221 q-78 0 -119 50.5t-41 141.5zM416 1110q0 -80 35 -80q58 0 139.5 97t130.5 235q-20 61 -90 61q-74 0 -144.5 -104t-70.5 -209z" />
<glyph unicode="&#xab;" horiz-adv-x="1085" d="M80 580q23 20 55 34q114 45 242 126t225 165q23 19 43 33q9 -8 16 -23.5t7 -23.5q-23 -161 -340 -344q243 -181 219 -359q-7 -33 -23 -49q-54 57 -156 142.5t-186 142.5q-5 3 -20 13t-19.5 13.5t-16.5 12.5t-16 15.5t-11.5 18t-10.5 22.5t-5.5 27t-2.5 34zM514 580 q17 15 55 34q116 46 253.5 135.5t248.5 188.5q13 13 53 43q11 -7 18 -24.5t5 -26.5q-18 -92 -121 -192t-264 -191q243 -181 219 -359q-3 -29 -23 -49q-54 57 -155.5 142.5t-184.5 142.5q-5 3 -22.5 14.5t-22.5 15.5t-18.5 15t-17.5 19.5t-11 22.5t-9.5 31t-2.5 38z" />
<glyph unicode="&#xac;" horiz-adv-x="1107" d="M197 721q2 7 9.5 32t10.5 40q19 8 37 8q19 0 49 -6q162 -9 252 -9q219 0 354 -12q31 -2 45.5 -3t42 -6t42 -12.5t29 -22t19.5 -34.5q7 -21 3 -61q-18 -95 -48 -189.5t-51 -117.5q-45 -58 -129 -58h-61h-33q55 108 68 201q6 14 6 43q0 36 -15 47q-102 11 -452 25 q-107 9 -160 47q-37 25 -18 88z" />
<glyph unicode="&#xad;" horiz-adv-x="712" d="M164 485q0 25 12 52q35 86 64 126.5t59 53t84 12.5q11 1 24.5 1t33 -0.5t32.5 -0.5h68q117 0 204 23q13 -23 7 -50q-12 -45 -26.5 -77t-35.5 -52.5t-40.5 -32.5t-54 -17.5t-61.5 -7t-77 -1.5h-60q-72 0 -150.5 -14.5t-82.5 -14.5z" />
<glyph unicode="&#xae;" horiz-adv-x="1792" d="M420 856q0 205 76 361.5t220 243.5t337 87q240 0 374 -125.5t134 -361.5q0 -150 -42.5 -277.5t-122.5 -221.5t-201.5 -147t-272.5 -53q-239 0 -370.5 124.5t-131.5 369.5zM567 868q0 -186 96 -284.5t279 -98.5q220 0 346.5 157t126.5 405q0 183 -102.5 278.5t-292.5 95.5 q-108 0 -195.5 -45t-143 -122t-85 -176t-29.5 -210zM727 670q28 157 46 311.5t18 206.5q0 24 -17 63q122 54 234 54q111 0 173 -40t62 -118q0 -139 -170 -211q28 -63 80.5 -137.5t99.5 -96.5q-14 -32 -52 -56.5t-79 -24.5q-53 0 -92 59q-29 41 -62 103.5t-50 109.5 q-15 -105 -15 -182q0 -8 2 -26.5t2 -27.5q0 -18 -49 -29.5t-67 -11.5q-31 0 -49 13.5t-15 40.5zM932 1006q66 3 102.5 33t36.5 87q0 34 -18.5 54t-53.5 20q-24 0 -36 -4q-8 -59 -15 -102q-3 -15 -8 -44t-8 -44z" />
<glyph unicode="&#xaf;" horiz-adv-x="1024" d="M397 1356v14q3 57 29 105q36 0 61 -2q15 0 185 -5q165 -6 168 -6q129 0 204 21q-1 -89 -28.5 -131t-87.5 -54q-58 -6 -113 -6q-68 0 -166 4q-85 3 -250 23q-2 12 -2 37z" />
<glyph unicode="&#xb0;" horiz-adv-x="763" d="M266 1255q0 137 103.5 225.5t255.5 88.5q108 -9 171 -59t64 -136q0 -132 -110 -221.5t-252 -89.5q-105 0 -168.5 49t-63.5 143zM449 1270q0 -68 88 -68q70 0 111.5 45t41.5 107q0 40 -35 69t-86 15q-54 -19 -87 -69.5t-33 -98.5z" />
<glyph unicode="&#xb1;" horiz-adv-x="1107" d="M72 -23q8 45 19.5 77.5t24 57t32 40t39 25t50.5 14.5t59.5 6.5t72.5 1.5h102h170q240 0 352 28q-9 -62 -26 -104t-38 -66t-58 -36.5t-71 -15.5t-91 -3h-80h-281q-187 0 -276 -25zM215 594q15 82 32.5 124.5t45.5 61.5q51 35 289 35q43 165 43 283q0 27 -2 39 q61 12 106 12q100 0 100 -64q0 -12 -2.5 -30.5t-5.5 -35t-10 -46t-11 -47t-14 -55.5t-14 -56h35q194 0 297 33q-19 -87 -37 -131t-47 -58q-83 -34 -289 -34q-43 -162 -43 -279q0 -33 2 -47q-55 -10 -92 -10q-62 0 -88.5 14t-26.5 49q0 65 58 275h-47q-176 0 -279 -33z" />
<glyph unicode="&#xb2;" horiz-adv-x="913" d="M227 770q0 22 9 35l4 4q74 62 115.5 97.5t101.5 95.5t102 114q143 184 143 283q0 29 -23.5 50t-55.5 21q-92 0 -146 -79v-2l-4 -5q-31 -26 -45 -30l-14 -4l-8 14q-29 48 -29 86q0 78 90.5 125t210.5 47q111 0 173 -52t62 -147q0 -158 -225 -397q-4 -4 -27.5 -28.5 t-47 -48t-52.5 -52t-49 -45.5q23 -2 59 -2q84 0 157.5 18.5t76.5 18.5q31 0 31 -53q0 -80 -26 -117t-103 -37q-21 0 -97.5 3t-122.5 3q-44 0 -109 -4t-81 -4h-2q-33 0 -45 10v2q-9 9 -14.5 29t-7.5 35z" />
<glyph unicode="&#xb3;" horiz-adv-x="880" d="M219 762q0 54 35 115l16 26l19 -24q63 -80 149 -80q78 0 130.5 47.5t52.5 118.5q0 41 -25 73.5t-66 32.5q-79 0 -139 -16l-16 -4l-6 16q-13 29 -13 53q0 22 11 40t32 30t40 19t46 14l7 2q38 13 67 26t61.5 33t50 47t17.5 58q0 77 -78 77q-46 0 -84.5 -24.5t-58.5 -65.5 l-14 -28l-25 30q-45 56 -45 84q0 66 69.5 107t184.5 41q74 0 126 -17t77.5 -46t36 -59.5t10.5 -66.5q0 -76 -43 -132.5t-137 -110.5q57 -22 89.5 -70t32.5 -115q0 -139 -117 -237.5t-282 -98.5q-211 0 -211 105z" />
<glyph unicode="&#xb4;" horiz-adv-x="899" d="M446 1290q0 12 15 21q105 67 176 135.5t139 159.5q113 0 172.5 -28.5t59.5 -76.5q0 -30 -33 -63t-94 -62q-153 -85 -349 -121q-26 -5 -56 6t-30 29z" />
<glyph unicode="&#xb5;" horiz-adv-x="1206" d="M16 -334q0 15 4 43q11 69 50 238q6 27 19.5 83.5t19.5 84.5q12 51 112 501q66 282 66 349q0 63 -21 106q110 43 201 43q119 0 119 -115q0 -25 -21 -122q-19 -82 -48 -201.5t-44.5 -185t-28 -133.5t-12.5 -103q0 -55 39 -55q44 0 129 97.5t168 246.5q158 293 158 471 q0 41 -15 71q96 29 176 29q125 -11 125 -113q0 -58 -26 -151q-63 -217 -82 -295q-39 -159 -39 -252q0 -46 22 -90q22 6 52 33q25 20 59 43.5t39 23.5q6 0 6 -16q0 -49 -52.5 -129t-115.5 -127q-54 -43 -117 -43q-88 0 -135 55t-47 166q0 50 19 158q-221 -360 -435 -393 q-26 -117 -43 -226q-4 -25 -4 -63q3 -60 33 -90q-115 -66 -205 -66q-66 0 -95.5 30.5t-29.5 96.5z" />
<glyph unicode="&#xb6;" horiz-adv-x="1220" d="M238 979q0 127 55 239.5t152 194t237 129t303 47.5q178 0 280.5 -39.5t102.5 -87.5q0 -55 -88 -125q-42 51 -127 66q-56 -227 -124 -552.5t-99 -500.5q-62 -375 -62 -448q0 -24 -51 -46.5t-102 -33.5l-51 -10q-65 -10 -107 26q-51 41 -51 99q0 68 49 344q8 41 23.5 118.5 t21.5 110.5q1 7 10 48.5t13 62.5q5 21 14 61.5t14 60.5q-42 -36 -84 -57q-46 -22 -94 -22q-235 0 -235 315zM473 975q0 -58 23.5 -98.5t74.5 -47.5q33 -6 69 54.5t75 169.5q62 184 102 374q-95 -4 -175.5 -74t-124.5 -172t-44 -206zM637.5 -52q0.5 -7 2.5 -16t8 -13.5 t16 -4.5q19 0 73 16q-3 19 0 35q37 271 131 723q40 194 166 737q-6 0 -20 2.5t-21 2.5l-13 1q-12 1 -24 1q-53 -210 -106 -424q-76 -280 -137.5 -577.5t-73.5 -448.5q0 -4 -1 -15.5t-0.5 -18.5z" />
<glyph unicode="&#xb7;" horiz-adv-x="622" d="M238 506v31q3 20 9.5 50.5t9.5 48.5t3 30q0 16 -2 24q85 45 160 45q64 0 99.5 -30.5t35.5 -86.5q0 -57 -37 -149q-82 -45 -164 -45q-104 0 -114 82z" />
<glyph unicode="&#xb8;" horiz-adv-x="1024" d="M150 -324q0 22 12 50q52 -13 92 -13q70 0 120 18t50 46q0 35 -20.5 48t-73.5 25q-8 2 -13 3q-9 47 25 86q30 38 82 38q18 0 22 -2q-18 -36 -18 -49q178 -31 178 -121q0 -78 -88 -131t-239 -53q-30 0 -49 1.5t-39.5 6.5t-30.5 17t-10 30z" />
<glyph unicode="&#xb9;" horiz-adv-x="886" d="M266 760v2q0 43 25 82l6 10l14 -2q10 0 38 -5t40 -5q2 0 10.5 -0.5t10.5 0.5t7.5 3t8 8.5t4.5 16.5q5 23 64.5 274t68.5 296q-17 -3 -66.5 -17t-66.5 -14q-51 0 -51 68q0 54 18 94l4 14h15q206 0 307 37l12 6l10 -12q37 -43 37 -82q0 -17 -6 -35q-5 -24 -76.5 -329.5 t-76.5 -329.5q4 0 11.5 1t12.5 1q44 0 72.5 -22.5t28.5 -57.5q0 -23 -31 -80l-10 -16l-17 10q-42 17 -98 14h-115q-14 1 -51 -0.5t-51 -1.5q-46 0 -76 19.5t-33 52.5z" />
<glyph unicode="&#xba;" horiz-adv-x="1019" d="M268 1120q0 85 29.5 158t78.5 123t111 86t127 52.5t127 16.5q124 0 194.5 -56.5t70.5 -172.5q0 -88 -40 -171t-108 -148q-126 -123 -313 -123q-135 0 -206 61.5t-71 173.5zM492 1155q0 -154 92 -154q55 0 95.5 30.5t60.5 81t29 102.5t9 108q0 121 -94 121 q-80 0 -131.5 -80t-60.5 -209z" />
<glyph unicode="&#xbb;" horiz-adv-x="1085" d="M82 193q18 92 121 191.5t264 190.5q-243 181 -219 359q3 30 22 49q54 -57 155.5 -142.5t184.5 -142.5q6 -4 22.5 -14.5t23 -15t18.5 -15t17.5 -19.5t12 -22.5t9 -30.5t2.5 -38q-19 -16 -56 -35q-116 -46 -252.5 -135.5t-248.5 -188.5q-10 -10 -54 -43q-11 7 -17.5 25 t-4.5 27zM561 231q23 161 340 344q-243 181 -219 359q7 33 23 49q54 -57 156 -142.5t186 -142.5q4 -3 22 -14.5t22.5 -15.5t18 -15t17.5 -19.5t11 -22.5t9 -30.5t2 -37.5q-25 -22 -55 -35q-114 -45 -242 -126t-225 -165q-23 -19 -43 -33q-9 8 -16 23.5t-7 23.5z" />
<glyph unicode="&#xbc;" horiz-adv-x="1804" d="M123 760v2q0 48 22 82l7 10l14 -2q16 0 52 -5t42 -5q10 0 16.5 5.5t10.5 22.5q8 42 65.5 287.5t65.5 282.5q-18 -4 -46.5 -12t-50 -13.5t-34.5 -5.5q-51 0 -51 68q0 59 16 94l6 14h14q204 0 308 37l10 6l12 -12q37 -47 37 -82q0 -19 -8 -35q-4 -23 -75.5 -328t-76.5 -331 q4 0 11.5 1t11.5 1q44 0 72 -22.5t28 -57.5q0 -26 -29 -80l-12 -16l-16 10q-35 14 -82 14h-17h-114h-17q-11 0 -40 -1t-46 -1q-45 0 -74 19.5t-32 52.5zM356 47q7 25 32 71t77 123t105.5 153t148 205t171.5 233t208.5 281.5t228.5 309.5q75 92 131.5 132t130.5 40 q85 0 148 -14q-150 -105 -590 -686q-393 -521 -551 -793q-2 -4 -9.5 -16.5t-9.5 -16.5t-8.5 -14.5t-9.5 -15t-8.5 -13t-9 -13t-9 -11.5t-10 -11t-10 -9t-10.5 -9q-122 22 -146 74zM1051 330q0 95 260 364q166 174 291 246l10 2q44 0 71 -17.5t27 -41.5q0 -10 -18 -115v-2 q-26 -118 -88 -358q23 0 42.5 2t26.5 2q30 1 44 -14.5t14 -37.5q0 -21 -18.5 -56t-39.5 -58l-8 -10l-12 4q-37 11 -82 14l-2 -8q-25 -119 -25 -152q0 -27 10 -47l9 -18l-19 -9q-64 -28 -112 -28q-86 0 -86 76q0 28 34 188q-67 0 -164 -7t-108 -7q-57 0 -57 88zM1178 393 q32 2 121.5 5.5t121.5 4.5q12 57 44.5 170t41.5 152q-93 -73 -185 -164t-144 -168z" />
<glyph unicode="&#xbd;" horiz-adv-x="1792" d="M123 760v2q0 44 24 82l7 10l14 -2q10 0 38 -5t40 -5q2 0 10.5 -0.5t10.5 0.5t7.5 3t8 8.5t4.5 16.5q5 23 64.5 274t68.5 296q-17 -3 -66.5 -17t-66.5 -14q-51 0 -51 68q0 54 18 94l4 14h14q207 0 308 37l12 6l10 -12q37 -43 37 -82q0 -17 -6 -35q-5 -24 -76.5 -329 t-77.5 -330q4 0 12 1t13 1q44 0 72 -22.5t28 -57.5q0 -23 -31 -80l-10 -16l-16 10q-42 17 -98 14h-115q-14 1 -51.5 -0.5t-51.5 -1.5q-46 0 -75.5 19.5t-32.5 52.5zM356 47q27 98 418 633q21 29 277 372.5t278 370.5q73 92 129.5 132t130.5 40q84 0 150 -14 q-157 -110 -590 -686q-392 -515 -553 -793q-2 -4 -10.5 -18t-11 -18.5t-9 -16t-10 -16t-9.5 -14t-10 -14t-10 -11.5t-11 -12t-11 -9q-121 21 -148 74zM1065 90q0 23 8 35l4 4q77 64 117 98t100.5 94.5t102.5 114.5q143 184 143 283q0 29 -24 50.5t-56 21.5q-90 0 -145 -80 v-2l-4 -4q-2 -2 -9 -8t-11 -9.5t-11 -7.5t-14 -6l-15 -4l-8 14q-29 48 -29 86q0 78 91 125t211 47q111 0 173 -52t62 -147q0 -158 -225 -397q-4 -4 -27.5 -28.5t-47 -48t-52.5 -52t-49 -45.5q23 -2 59 -2q62 0 112.5 9t80 18.5t40.5 9.5q31 0 31 -53q0 -80 -26 -117 t-103 -37q-21 0 -97 3t-122 3q-44 0 -109 -4t-81 -4h-2q-34 0 -46 10v2q-9 9 -14.5 29t-6.5 35z" />
<glyph unicode="&#xbe;" horiz-adv-x="1812" d="M117 762q0 54 35 115l16 26l18 -24q63 -80 150 -80q78 0 130 47.5t52 118.5q0 41 -25 73.5t-65 32.5q-79 0 -139 -16l-17 -4l-6 16q-12 27 -12 53q0 22 11 40t32 30t40 19t46 14l6 2q39 13 67.5 26t61 33t50.5 47t18 58q0 77 -78 77q-46 0 -84.5 -24.5t-58.5 -65.5 l-15 -28l-24 30q-45 56 -45 84q0 66 69.5 107t184.5 41q74 0 125.5 -17t77 -46t36 -59.5t10.5 -66.5q0 -76 -43 -132.5t-137 -110.5q57 -22 90 -70t33 -115q0 -139 -117 -237.5t-282 -98.5q-211 0 -211 105zM356 47q7 25 32 71t77 123t105.5 153t148 205t171.5 233 t208.5 281.5t228.5 309.5q75 92 131.5 132t130.5 40q85 0 148 -14q-150 -105 -590 -686q-393 -521 -551 -793q-2 -4 -9.5 -16.5t-9.5 -16.5t-8.5 -14.5t-9.5 -15t-8.5 -13t-9 -13t-9 -11.5t-10 -11t-10 -9t-10.5 -9q-122 22 -146 74zM1051 330q0 95 260 364q166 174 291 246 l10 2q44 0 71 -17.5t27 -41.5q0 -10 -18 -115v-2q-26 -118 -88 -358q23 0 42.5 2t26.5 2q30 1 44 -14.5t14 -37.5q0 -21 -18.5 -56t-39.5 -58l-8 -10l-12 4q-37 11 -82 14l-2 -8q-25 -119 -25 -152q0 -27 10 -47l9 -18l-19 -9q-64 -28 -112 -28q-86 0 -86 76q0 28 34 188 q-67 0 -164 -7t-108 -7q-57 0 -57 88zM1178 393q32 2 121.5 5.5t121.5 4.5q12 57 44.5 170t41.5 152q-93 -73 -185 -164t-144 -168z" />
<glyph unicode="&#xbf;" horiz-adv-x="1038" d="M61 -174q0 163 132 301q42 39 107 88.5t117.5 88t102.5 81.5t78.5 86t28.5 84q0 51 -31 115q97 65 184 65q55 0 89 -48.5t34 -94.5q0 -110 -84 -184q-18 -16 -67.5 -52t-96.5 -70.5t-103.5 -86.5t-98 -103t-69.5 -116t-28 -130q0 -89 51 -134.5t136 -45.5 q75 0 135.5 46.5t87.5 119.5q24 33 51 39q90 -66 90 -135q0 -77 -71 -137t-172 -88.5t-207 -28.5q-186 0 -291 83t-105 257zM647 963q0 10 25 112q82 55 174 55q51 0 76.5 -24t25.5 -64q0 -32 -9 -72t-9 -52q0 -17 2 -27q-87 -41 -154 -41q-63 0 -97 29.5t-34 83.5z" />
<glyph unicode="&#xc0;" horiz-adv-x="1318" d="M-41 43q0 45 33 107q164 297 543 931q222 374 266 455q115 85 256 70q86 -9 92 -146q0 -104 2 -170q0 -37 3 -97t3 -83q3 -32 9 -145t12.5 -234.5t7.5 -142.5q12 -197 43 -342q31 -147 96 -207q-116 -80 -254 -68q-112 9 -137 201q-8 51 -13.5 103.5t-11.5 129t-8 103.5 q-36 -29 -94 -29q-169 -6 -332 -6q-39 -21 -59.5 -41.5t-36.5 -52.5q-10 -14 -23 -37t-21 -39.5t-23 -47.5t-19 -40q-10 -25 -16 -41t-13.5 -40.5t-10.5 -43.5t-3.5 -41.5t4.5 -42.5q-93 -35 -191 -35q-104 0 -104 72zM508 647h336q3 0 51 6q-4 324 -29 660 q-285 -527 -358 -666zM569 1946q0 43 77.5 83t164.5 27q6 -9 29.5 -44.5t33.5 -49.5t30.5 -40.5t40.5 -46.5t44 -40q14 -11 50 -36t55.5 -41t19.5 -23q0 -18 -31 -29t-57 -6q-185 37 -321 110.5t-136 135.5z" />
<glyph unicode="&#xc1;" horiz-adv-x="1318" d="M-41 43q0 45 33 107q164 297 543 931q222 374 266 455q115 85 256 70q86 -9 92 -146q0 -104 2 -170q0 -37 3 -97t3 -83q3 -32 9 -145t12.5 -234.5t7.5 -142.5q12 -197 43 -342q31 -147 96 -207q-116 -80 -254 -68q-112 9 -137 201q-8 51 -13.5 103.5t-11.5 129t-8 103.5 q-36 -29 -94 -29q-169 -6 -332 -6q-39 -21 -59.5 -41.5t-36.5 -52.5q-10 -14 -23 -37t-21 -39.5t-23 -47.5t-19 -40q-10 -25 -16 -41t-13.5 -40.5t-10.5 -43.5t-3.5 -41.5t4.5 -42.5q-93 -35 -191 -35q-104 0 -104 72zM508 647h336q3 0 51 6q-4 324 -29 660 q-285 -527 -358 -666zM817 1733q0 12 14 20q105 67 176.5 136t139.5 159q113 0 172 -28.5t59 -75.5q0 -30 -33 -63t-94 -62q-66 -37 -161 -70.5t-187 -50.5q-26 -5 -56 6t-30 29z" />
<glyph unicode="&#xc2;" horiz-adv-x="1318" d="M-41 43q0 45 33 107q164 297 543 931q222 374 266 455q115 85 256 70q86 -9 92 -146q0 -104 2 -170q0 -37 3 -97t3 -83q3 -32 9 -145t12.5 -234.5t7.5 -142.5q12 -197 43 -342q31 -147 96 -207q-116 -80 -254 -68q-112 9 -137 201q-8 51 -13.5 103.5t-11.5 129t-8 103.5 q-36 -29 -94 -29q-169 -6 -332 -6q-39 -21 -59.5 -41.5t-36.5 -52.5q-10 -14 -23 -37t-21 -39.5t-23 -47.5t-19 -40q-10 -25 -16 -41t-13.5 -40.5t-10.5 -43.5t-3.5 -41.5t4.5 -42.5q-93 -35 -191 -35q-104 0 -104 72zM508 647h336q3 0 51 6q-4 324 -29 660 q-285 -527 -358 -666z" />
<glyph unicode="&#xc3;" horiz-adv-x="1318" d="M-41 43q0 45 33 107q164 297 543 931q222 374 266 455q115 85 256 70q86 -9 92 -146q0 -104 2 -170q0 -37 3 -97t3 -83q3 -32 9 -145t12.5 -234.5t7.5 -142.5q12 -197 43 -342q31 -147 96 -207q-116 -80 -254 -68q-112 9 -137 201q-8 51 -13.5 103.5t-11.5 129t-8 103.5 q-36 -29 -94 -29q-169 -6 -332 -6q-39 -21 -59.5 -41.5t-36.5 -52.5q-10 -14 -23 -37t-21 -39.5t-23 -47.5t-19 -40q-10 -25 -16 -41t-13.5 -40.5t-10.5 -43.5t-3.5 -41.5t4.5 -42.5q-93 -35 -191 -35q-104 0 -104 72zM508 647h336q3 0 51 6q-4 324 -29 660 q-285 -527 -358 -666zM573 1772q0 10 3 29t4 26q21 99 82 166q62 65 149 65q45 1 98.5 -19.5t134.5 -62.5q143 -73 199 -73q7 0 23 4q67 17 92 133q8 19 10 31q2 2 6 2q6 0 23 -7q26 -12 35.5 -28.5t9.5 -46.5q-15 -113 -86 -187q-66 -75 -158 -75q-77 0 -229 83 q-136 76 -193 76q-16 0 -26 -4q-64 -18 -91 -127q-2 -6 -7 -17.5t-7 -17.5q-2 -2 -6 -2q-22 0 -43 17q-23 18 -23 35z" />
<glyph unicode="&#xc4;" horiz-adv-x="1318" d="M-41 43q0 45 33 107q164 297 543 931q222 374 266 455q115 85 256 70q86 -9 92 -146q0 -104 2 -170q0 -37 3 -97t3 -83q3 -32 9 -145t12.5 -234.5t7.5 -142.5q12 -197 43 -342q31 -147 96 -207q-116 -80 -254 -68q-112 9 -137 201q-8 51 -13.5 103.5t-11.5 129t-8 103.5 q-36 -29 -94 -29q-169 -6 -332 -6q-39 -21 -59.5 -41.5t-36.5 -52.5q-10 -14 -23 -37t-21 -39.5t-23 -47.5t-19 -40q-10 -25 -16 -41t-13.5 -40.5t-10.5 -43.5t-3.5 -41.5t4.5 -42.5q-93 -35 -191 -35q-104 0 -104 72zM508 647h336q3 0 51 6q-4 324 -29 660 q-285 -527 -358 -666zM633 1804q0 45 12 92t12 60q84 43 154 43q59 0 93 -27.5t34 -77.5q0 -48 -35 -135q-82 -49 -164 -49q-45 0 -75.5 22t-30.5 72zM1075 1804q0 45 12.5 92t12.5 60q84 43 153 43q59 0 93 -27.5t34 -77.5q0 -51 -34 -135q-82 -49 -164 -49q-46 0 -76.5 22 t-30.5 72z" />
<glyph unicode="&#xc5;" horiz-adv-x="1318" d="M-41 43q0 45 33 107q134 244 543 931q20 34 78 129.5t102.5 172t85.5 151.5q-68 65 -47 168q22 94 111.5 160.5t193.5 66.5t163.5 -66.5t37.5 -160.5q-21 -97 -123 -166q12 -46 12 -76q0 -104 2 -170q0 -39 3 -98t3 -82q4 -43 16.5 -280t12.5 -242q12 -200 43 -344 q31 -148 96 -207q-113 -78 -254 -66q-112 9 -137 201q-8 50 -13.5 102.5t-11.5 129.5t-8 104q-33 -29 -94 -29q-113 -6 -332 -6q-38 -20 -58.5 -41.5t-37.5 -52.5q-10 -14 -23 -37t-21 -39.5t-23 -47.5t-19 -40q-56 -137 -39 -209q-85 -35 -191 -35q-104 0 -104 72zM508 645 h336q12 0 29.5 4t21.5 4q-4 324 -29 660q-269 -499 -358 -668zM901 1706q-9 -43 15.5 -71.5t68.5 -28.5q43 0 80.5 29t46.5 71q9 38 -15 66t-67 28q-44 0 -82 -28t-47 -66z" />
<glyph unicode="&#xc6;" horiz-adv-x="1810" d="M-78 66q0 52 103 196q33 46 485.5 625t509.5 649q110 72 229 72q38 0 60.5 -7t33.5 -30q262 14 443 14q62 0 92.5 -7.5t52.5 -29.5q-5 -82 -43.5 -147.5t-101.5 -65.5q-8 0 -30 12.5t-60 25.5t-86 13h-76q-30 0 -82 2.5t-72 2.5h-90q35 -38 29 -80q-44 -324 -59 -408h120 q171 0 361 31q0 -2 1 -6.5t1 -7.5q0 -55 -18 -94t-45.5 -61.5t-72.5 -35t-88 -16.5t-102 -4q-27 0 -84 1t-86 1q-12 0 -36.5 -173.5t-24.5 -226.5q0 -34 11 -58t27 -36.5t42 -20t46.5 -9t49.5 -1.5q99 0 191.5 22t151 44t75.5 22q2 -10 2 -30q0 -42 -10.5 -77t-27 -61 t-46.5 -46t-59 -33.5t-76 -23t-86 -14.5t-100 -8t-107 -3.5t-117 -0.5h-82q-104 0 -152.5 24.5t-48.5 102.5q0 73 9.5 146t27 159.5t21.5 112.5q-41 -28 -103 -28q-173 -9 -338 -9q-105 -76 -186.5 -194.5t-81.5 -235.5q0 -15 4 -43q-93 -35 -190 -35q-44 0 -77.5 21 t-33.5 68zM561 664q217 0 387 6q6 41 38.5 275.5t53.5 363.5q-11 -15 -177.5 -241t-301.5 -404z" />
<glyph unicode="&#xc7;" horiz-adv-x="1292" d="M145 518q0 164 46 325.5t132 299t199 243.5t256 166t295 60q101 0 177.5 -21t123.5 -68.5t47 -117.5q0 -129 -192 -213q-30 130 -90.5 191t-171.5 61q-94 0 -176.5 -60t-139.5 -156.5t-98 -216.5t-60.5 -240.5t-19.5 -229.5q0 -183 73 -282t220 -99q102 0 221 59t221 156 q29 -82 29 -111q0 -74 -91 -146.5t-233 -117.5t-284 -45q-251 0 -367.5 143t-116.5 420zM367 -381q0 21 12 49q48 -12 92 -12q70 0 120 17.5t50 45.5q0 35 -20 48t-73 25q-9 2 -13 3q-9 48 24 86q31 39 82 39q19 0 23 -2q-19 -38 -19 -49q178 -31 178 -121q0 -78 -88 -131 t-239 -53q-30 0 -49 1.5t-39.5 6.5t-30.5 17t-10 30z" />
<glyph unicode="&#xc8;" horiz-adv-x="1181" d="M147 172q0 101 46 281q12 45 37 139.5t36 136t30.5 119t28.5 117t21.5 98.5t18 96t10 77.5t4.5 72.5q0 58 -6 62q-2 2 -4 1q-27 -6 -66 -6q-9 3 -6 35q0 30 12 57q28 55 49.5 72t67.5 22q269 25 520 25q44 0 117 4t98 4q62 0 92 -7.5t50 -29.5q-12 -83 -55.5 -148 t-106.5 -65q-8 0 -29 12.5t-58 25.5t-85 13h-76q-30 0 -82 2.5t-72 2.5h-90q25 -28 25 -62q0 -23 -4 -33q-56 -263 -88 -393h120q169 0 363 31q0 -22 -6 -49q-11 -40 -28 -69.5t-42 -48.5t-50 -30.5t-63 -17t-69.5 -7t-79.5 -1.5h-123h-61q-74 -230 -74 -373 q0 -24 4.5 -44.5t10 -35t18.5 -26.5t21.5 -19.5t27.5 -13t27.5 -8t31.5 -4t29 -1.5h30.5h26.5q91 0 184 22t156 44t80 22q0 -54 -12.5 -96.5t-34.5 -72.5t-58 -51.5t-75.5 -34.5t-95.5 -20.5t-109.5 -10t-124.5 -2.5q-48 0 -142.5 1t-141.5 1q-106 0 -140.5 45t-34.5 139z M428 1946q0 43 77.5 83t164.5 27q6 -9 29.5 -44.5t33.5 -49.5t30.5 -40.5t40.5 -46.5t44 -40q14 -11 50 -36t55.5 -41t19.5 -23q0 -18 -31 -29t-57 -6q-185 37 -321 110.5t-136 135.5z" />
<glyph unicode="&#xc9;" horiz-adv-x="1181" d="M147 172q0 101 46 281q12 45 37 139.5t36 136t30.5 119t28.5 117t21.5 98.5t18 96t10 77.5t4.5 72.5q0 58 -6 62q-2 2 -4 1q-27 -6 -66 -6q-9 3 -6 35q0 30 12 57q28 55 49.5 72t67.5 22q269 25 520 25q44 0 117 4t98 4q62 0 92 -7.5t50 -29.5q-12 -83 -55.5 -148 t-106.5 -65q-8 0 -29 12.5t-58 25.5t-85 13h-76q-30 0 -82 2.5t-72 2.5h-90q25 -28 25 -62q0 -23 -4 -33q-56 -263 -88 -393h120q169 0 363 31q0 -22 -6 -49q-11 -40 -28 -69.5t-42 -48.5t-50 -30.5t-63 -17t-69.5 -7t-79.5 -1.5h-123h-61q-74 -230 -74 -373 q0 -24 4.5 -44.5t10 -35t18.5 -26.5t21.5 -19.5t27.5 -13t27.5 -8t31.5 -4t29 -1.5h30.5h26.5q91 0 184 22t156 44t80 22q0 -54 -12.5 -96.5t-34.5 -72.5t-58 -51.5t-75.5 -34.5t-95.5 -20.5t-109.5 -10t-124.5 -2.5q-48 0 -142.5 1t-141.5 1q-106 0 -140.5 45t-34.5 139z M645 1735q0 12 14 20q105 67 176.5 136t139.5 159q113 0 172 -28.5t59 -75.5q0 -30 -33 -63t-94 -62q-66 -37 -161 -70.5t-187 -50.5q-26 -5 -56 6t-30 29z" />
<glyph unicode="&#xca;" horiz-adv-x="1181" d="M147 172q0 101 46 281q12 45 37 139.5t36 136t30.5 119t28.5 117t21.5 98.5t18 96t10 77.5t4.5 72.5q0 58 -6 62q-2 2 -4 1q-27 -6 -66 -6q-9 3 -6 35q0 30 12 57q28 55 49.5 72t67.5 22q269 25 520 25q44 0 117 4t98 4q62 0 92 -7.5t50 -29.5q-12 -83 -55.5 -148 t-106.5 -65q-8 0 -29 12.5t-58 25.5t-85 13h-76q-30 0 -82 2.5t-72 2.5h-90q25 -28 25 -62q0 -23 -4 -33q-56 -263 -88 -393h120q169 0 363 31q0 -22 -6 -49q-11 -40 -28 -69.5t-42 -48.5t-50 -30.5t-63 -17t-69.5 -7t-79.5 -1.5h-123h-61q-74 -230 -74 -373 q0 -24 4.5 -44.5t10 -35t18.5 -26.5t21.5 -19.5t27.5 -13t27.5 -8t31.5 -4t29 -1.5h30.5h26.5q91 0 184 22t156 44t80 22q0 -54 -12.5 -96.5t-34.5 -72.5t-58 -51.5t-75.5 -34.5t-95.5 -20.5t-109.5 -10t-124.5 -2.5q-48 0 -142.5 1t-141.5 1q-106 0 -140.5 45t-34.5 139z " />
<glyph unicode="&#xcb;" horiz-adv-x="1181" d="M147 172q0 101 46 281q12 45 37 139.5t36 136t30.5 119t28.5 117t21.5 98.5t18 96t10 77.5t4.5 72.5q0 58 -6 62q-2 2 -4 1q-27 -6 -66 -6q-9 3 -6 35q0 30 12 57q28 55 49.5 72t67.5 22q269 25 520 25q44 0 117 4t98 4q62 0 92 -7.5t50 -29.5q-12 -83 -55.5 -148 t-106.5 -65q-8 0 -29 12.5t-58 25.5t-85 13h-76q-30 0 -82 2.5t-72 2.5h-90q25 -28 25 -62q0 -23 -4 -33q-56 -263 -88 -393h120q169 0 363 31q0 -22 -6 -49q-11 -40 -28 -69.5t-42 -48.5t-50 -30.5t-63 -17t-69.5 -7t-79.5 -1.5h-123h-61q-74 -230 -74 -373 q0 -24 4.5 -44.5t10 -35t18.5 -26.5t21.5 -19.5t27.5 -13t27.5 -8t31.5 -4t29 -1.5h30.5h26.5q91 0 184 22t156 44t80 22q0 -54 -12.5 -96.5t-34.5 -72.5t-58 -51.5t-75.5 -34.5t-95.5 -20.5t-109.5 -10t-124.5 -2.5q-48 0 -142.5 1t-141.5 1q-106 0 -140.5 45t-34.5 139z M528 1804q0 45 12.5 92t12.5 60q84 43 154 43q59 0 93 -27.5t34 -77.5q0 -48 -35 -135q-82 -49 -164 -49q-46 0 -76.5 22t-30.5 72zM971 1804q0 45 12 92t12 60q84 43 154 43q59 0 93 -27.5t34 -77.5q0 -48 -35 -135q-82 -49 -164 -49q-45 0 -75.5 22t-30.5 72z" />
<glyph unicode="&#xcc;" horiz-adv-x="772" d="M209 100q0 65 31 197q114 458 186 799q32 148 37 247q0 23 1 44.5t-11 41.5t-37 31q-14 3 -21 21q-5 15 -4 18.5t10 9.5q62 36 134 57t127 21q75 0 108 -41q34 -39 21 -116q-15 -63 -74 -309t-94 -401t-66 -310q-31 -159 -31 -211q0 -82 47 -150q0 -30 -95.5 -55 t-151.5 -25q-64 0 -90.5 33t-26.5 98zM297 1946q0 43 77.5 83t164.5 27q6 -9 29.5 -44.5t33.5 -49.5t30.5 -40.5t40.5 -46.5t44 -40q14 -11 50 -36t55.5 -41t19.5 -23q0 -18 -31 -29t-57 -6q-185 37 -321 110.5t-136 135.5z" />
<glyph unicode="&#xcd;" horiz-adv-x="772" d="M209 100q0 65 31 197q114 458 186 799q32 148 37 247q0 23 1 44.5t-11 41.5t-37 31q-14 3 -21 21q-5 15 -4 18.5t10 9.5q62 36 134 57t127 21q75 0 108 -41q34 -39 21 -116q-15 -63 -74 -309t-94 -401t-66 -310q-31 -159 -31 -211q0 -82 47 -150q0 -30 -95.5 -55 t-151.5 -25q-64 0 -90.5 33t-26.5 98zM510 1733q0 12 14 20q105 67 176.5 136t139.5 159q113 0 172 -28.5t59 -75.5q0 -30 -33 -63t-94 -62q-66 -37 -161 -70.5t-187 -50.5q-26 -5 -56 6t-30 29z" />
<glyph unicode="&#xce;" horiz-adv-x="772" d="M209 100q0 65 31 197q114 458 186 799q32 148 37 247q0 23 1 44.5t-11 41.5t-37 31q-14 3 -21 21q-5 15 -4 18.5t10 9.5q62 36 134 57t127 21q75 0 108 -41q34 -39 21 -116q-15 -63 -74 -309t-94 -401t-66 -310q-31 -159 -31 -211q0 -82 47 -150q0 -30 -95.5 -55 t-151.5 -25q-64 0 -90.5 33t-26.5 98zM317 1720q88 77 162 140q217 190 303 190q31 0 49 -12q24 -66 83.5 -155t121.5 -148q-37 -45 -102 -45q-34 0 -99.5 45.5t-129.5 115.5q-93 -70 -187 -115.5t-141 -45.5q-60 0 -60 30z" />
<glyph unicode="&#xcf;" horiz-adv-x="772" d="M209 100q0 65 31 197q114 458 186 799q32 148 37 247q0 23 1 44.5t-11 41.5t-37 31q-14 3 -21 21q-5 15 -4 18.5t10 9.5q62 36 134 57t127 21q75 0 108 -41q34 -39 21 -116q-15 -63 -74 -309t-94 -401t-66 -310q-31 -159 -31 -211q0 -82 47 -150q0 -30 -95.5 -55 t-151.5 -25q-64 0 -90.5 33t-26.5 98zM336 1804q0 45 12 92t12 60q84 43 154 43q59 0 93 -27.5t34 -77.5q0 -48 -35 -135q-82 -49 -164 -49q-45 0 -75.5 22t-30.5 72zM778 1804q0 45 12.5 92t12.5 60q84 43 153 43q59 0 93 -27.5t34 -77.5q0 -51 -34 -135q-82 -49 -164 -49 q-46 0 -76.5 22t-30.5 72z" />
<glyph unicode="&#xd0;" d="M102 705q20 88 47.5 128.5t90.5 40.5l71 -2q61 267 76 357q6 30 6 49q0 21 -9.5 33.5t-21 16.5t-21 13t-9.5 23q0 88 47 156q235 88 489 88q294 0 454.5 -136t160.5 -419q0 -143 -36 -282t-99.5 -258t-152.5 -220t-193 -172.5t-223.5 -111.5t-241.5 -40q-222 0 -400 133 q-2 21 10 80q46 205 127 533h-67q-72 0 -105 -10zM467 266q14 -60 56.5 -85t131.5 -25q107 0 205 73.5t166.5 192t109 270.5t40.5 305q0 202 -90 315t-257 113q-67 0 -159 -20q14 -43 14 -94q0 -89 -78 -439h60q138 0 241 19q-4 -27 -9 -48t-11.5 -38t-15 -30t-18.5 -22.5 t-22 -16t-26.5 -11t-31.5 -6.5t-37.5 -3t-43.5 -1h-50h-30h-43q-88 -387 -102 -449z" />
<glyph unicode="&#xd1;" horiz-adv-x="1529" d="M113 90q0 34 13.5 100t29 125t48 177.5t50.5 185.5q134 506 156 630q8 49 8 72q0 68 -37 117q58 44 118 69t105 25q66 0 114 -73.5t103 -253.5q214 -696 322 -916q16 47 33 109.5t28.5 110.5t29.5 127.5t28 119.5q98 409 98 578q0 96 -39 157q106 47 184 47 q123 0 123 -137q0 -36 -6 -71q-3 -22 -168.5 -677t-173.5 -708q-98 -33 -211 -33q-27 0 -57 38.5t-56 99.5q-110 276 -346 890q-6 15 -16 48t-16 49q-72 -270 -133.5 -562t-61.5 -364q0 -97 45 -154q-115 -45 -192 -45q-64 0 -93.5 28.5t-29.5 90.5zM635 1772q0 8 1 17 t2.5 20t2.5 18q21 99 82 166q62 65 149 65q45 1 99.5 -19.5t134.5 -62.5q143 -73 199 -73q6 0 22 4q67 17 92 133q10 24 11 31q2 2 6 2t22 -7q26 -12 35.5 -28.5t9.5 -46.5q-15 -113 -86 -187q-66 -75 -157 -75q-78 0 -230 83q-136 76 -192 76q-17 0 -27 -4 q-63 -18 -90 -127q-2 -6 -7 -17.5t-7 -17.5q-2 -2 -7 -2q-22 0 -43 17q-22 17 -22 35z" />
<glyph unicode="&#xd2;" d="M152 475q0 133 30 270t84 262.5t134.5 235.5t175.5 191.5t213 128.5t243 47q224 0 341.5 -136.5t117.5 -388.5q0 -129 -31 -264.5t-86.5 -261t-137.5 -236.5t-178.5 -193.5t-214.5 -130.5t-241 -48q-223 0 -336.5 134.5t-113.5 389.5zM469 506q0 -121 21.5 -208 t73.5 -137t132 -38q91 14 172 90.5t137 185.5t97.5 237t61.5 248t20 216q0 156 -56 247t-172 91q-91 0 -182.5 -93.5t-157 -233t-106.5 -303.5t-41 -302zM672 1946q0 43 77 83t164 27q7 -10 25.5 -38t27 -40t25.5 -35.5t30.5 -38.5t32 -34t38.5 -35q14 -11 50 -36t55.5 -41 t19.5 -23q0 -18 -31.5 -29t-57.5 -6q-185 36 -320.5 110t-135.5 136z" />
<glyph unicode="&#xd3;" d="M152 475q0 133 30 270t84 262.5t134.5 235.5t175.5 191.5t213 128.5t243 47q224 0 341.5 -136.5t117.5 -388.5q0 -129 -31 -264.5t-86.5 -261t-137.5 -236.5t-178.5 -193.5t-214.5 -130.5t-241 -48q-223 0 -336.5 134.5t-113.5 389.5zM469 506q0 -121 21.5 -208 t73.5 -137t132 -38q91 14 172 90.5t137 185.5t97.5 237t61.5 248t20 216q0 156 -56 247t-172 91q-91 0 -182.5 -93.5t-157 -233t-106.5 -303.5t-41 -302zM915 1733q0 11 15 20q105 67 176 135.5t139 159.5q113 0 172.5 -28.5t59.5 -75.5q0 -30 -33 -63t-94 -62 q-153 -85 -349 -121q-26 -5 -56 6t-30 29z" />
<glyph unicode="&#xd4;" d="M152 475q0 133 30 270t84 262.5t134.5 235.5t175.5 191.5t213 128.5t243 47q224 0 341.5 -136.5t117.5 -388.5q0 -129 -31 -264.5t-86.5 -261t-137.5 -236.5t-178.5 -193.5t-214.5 -130.5t-241 -48q-223 0 -336.5 134.5t-113.5 389.5zM469 506q0 -121 21.5 -208 t73.5 -137t132 -38q91 14 172 90.5t137 185.5t97.5 237t61.5 248t20 216q0 156 -56 247t-172 91q-91 0 -182.5 -93.5t-157 -233t-106.5 -303.5t-41 -302z" />
<glyph unicode="&#xd5;" d="M152 475q0 133 30 270t84 262.5t134.5 235.5t175.5 191.5t213 128.5t243 47q224 0 341.5 -136.5t117.5 -388.5q0 -129 -31 -264.5t-86.5 -261t-137.5 -236.5t-178.5 -193.5t-214.5 -130.5t-241 -48q-223 0 -336.5 134.5t-113.5 389.5zM469 506q0 -121 21.5 -208 t73.5 -137t132 -38q91 14 172 90.5t137 185.5t97.5 237t61.5 248t20 216q0 156 -56 247t-172 91q-91 0 -182.5 -93.5t-157 -233t-106.5 -303.5t-41 -302zM635 1772q0 8 1 17t2.5 20t2.5 18q21 99 82 166q62 65 149 65q45 1 99.5 -19.5t134.5 -62.5q143 -73 199 -73q6 0 22 4 q67 17 92 133q10 24 11 31q2 2 6 2t22 -7q26 -12 35.5 -28.5t9.5 -46.5q-15 -113 -86 -187q-66 -75 -157 -75q-78 0 -230 83q-136 76 -192 76q-17 0 -27 -4q-63 -18 -90 -127q-2 -6 -7 -17.5t-7 -17.5q-2 -2 -7 -2q-22 0 -43 17q-22 17 -22 35z" />
<glyph unicode="&#xd6;" d="M152 475q0 133 30 270t84 262.5t134.5 235.5t175.5 191.5t213 128.5t243 47q224 0 341.5 -136.5t117.5 -388.5q0 -129 -31 -264.5t-86.5 -261t-137.5 -236.5t-178.5 -193.5t-214.5 -130.5t-241 -48q-223 0 -336.5 134.5t-113.5 389.5zM469 506q0 -121 21.5 -208 t73.5 -137t132 -38q91 14 172 90.5t137 185.5t97.5 237t61.5 248t20 216q0 156 -56 247t-172 91q-91 0 -182.5 -93.5t-157 -233t-106.5 -303.5t-41 -302zM741 1804q0 45 12.5 92t12.5 60q84 43 154 43q59 0 93 -27.5t34 -77.5q0 -48 -35 -135q-82 -49 -164 -49 q-46 0 -76.5 22t-30.5 72zM1184 1804q0 45 12 92t12 60q84 43 154 43q59 0 93 -27.5t34 -77.5q0 -48 -35 -135q-82 -49 -164 -49q-45 0 -75.5 22t-30.5 72z" />
<glyph unicode="&#xd7;" horiz-adv-x="1193" d="M166 244q0 24 41.5 69t108 98.5t115.5 90t99 71.5q-11 15 -51.5 72.5t-59 80.5t-56.5 59t-76 57q83 116 166 116q22 0 49 -20t56.5 -57.5t50 -67t49 -74.5t34.5 -53q218 170 338 303q52 -49 75 -80.5t23 -58.5q0 -21 -8 -37q-28 -48 -128 -136.5t-195 -152.5 q137 -219 250 -329q-108 -84 -181 -84q-14 0 -32 12t-38.5 35.5t-38 46.5t-39.5 58t-34.5 55.5t-32 53.5t-22.5 38q-220 -159 -355 -322q-108 89 -108 156z" />
<glyph unicode="&#xd8;" horiz-adv-x="1423" d="M125 -125q18 40 131 221q-111 135 -111 385q0 133 30 270t84.5 262.5t134.5 235.5t175.5 191.5t213.5 128.5t243 47q169 0 279 -78q70 82 100 108q70 60 147 60q51 0 76 -2q-82 -70 -237 -252q94 -136 94 -360q0 -129 -31 -264.5t-86.5 -261t-137.5 -237t-178.5 -194 t-214.5 -130.5t-241 -48q-144 0 -244 59q-29 -48 -78 -137q-24 -53 -51 -53q-20 0 -50.5 16t-47.5 33zM463 512q0 -32 4 -94q92 134 192 274q5 7 480 629q-55 123 -189 123q-91 0 -182.5 -93.5t-157 -233t-106.5 -303.5t-41 -302zM502 256q57 -144 188 -127q91 14 172 90.5 t137 185.5t97.5 237t61.5 248t20 216q0 32 -4 86q-173 -219 -287 -373q-187 -253 -385 -563z" />
<glyph unicode="&#xd9;" horiz-adv-x="1439" d="M178 326q0 50 6 96q14 102 103.5 490.5t93.5 476.5q0 36 -7 59t-23 47t-19 29q41 35 119 52t139 17q106 0 112 -92q0 -73 -31.5 -221.5t-83 -354t-71.5 -298.5q-41 -185 -41 -273q0 -90 37.5 -139t110.5 -49q66 0 141.5 44.5t148.5 131.5q68 93 131 326q55 201 109 432.5 t72 357.5q1 5 -4 41q-4 30 9.5 50t42.5 29t57 12t65 3q100 0 132 -15t32 -60q-1 -19 -7 -42t-18 -56.5t-18 -55.5q-222 -746 -222 -1038q0 -52 6 -93q13 -82 30.5 -129t51.5 -77q-116 -80 -254 -68q-40 4 -66 23t-37.5 51t-15 61t-3.5 72v72q-1 4 -2 4 q-59 -68 -109.5 -115.5t-112 -89.5t-130 -63t-144.5 -21q-73 0 -130.5 21t-94 56t-61 84t-34.5 101t-10 111zM596 1946q0 43 77.5 83t164.5 27q6 -9 29.5 -44.5t33.5 -49.5t30.5 -40.5t40.5 -46.5t44 -40q14 -11 50 -36t55.5 -41t19.5 -23q0 -18 -31 -29t-57 -6 q-185 37 -321 110.5t-136 135.5z" />
<glyph unicode="&#xda;" horiz-adv-x="1439" d="M178 326q0 50 6 96q14 102 103.5 490.5t93.5 476.5q0 36 -7 59t-23 47t-19 29q41 35 119 52t139 17q106 0 112 -92q0 -73 -31.5 -221.5t-83 -354t-71.5 -298.5q-41 -185 -41 -273q0 -90 37.5 -139t110.5 -49q66 0 141.5 44.5t148.5 131.5q68 93 131 326q55 201 109 432.5 t72 357.5q1 5 -4 41q-4 30 9.5 50t42.5 29t57 12t65 3q100 0 132 -15t32 -60q-1 -19 -7 -42t-18 -56.5t-18 -55.5q-222 -746 -222 -1038q0 -52 6 -93q13 -82 30.5 -129t51.5 -77q-116 -80 -254 -68q-40 4 -66 23t-37.5 51t-15 61t-3.5 72v72q-1 4 -2 4 q-59 -68 -109.5 -115.5t-112 -89.5t-130 -63t-144.5 -21q-73 0 -130.5 21t-94 56t-61 84t-34.5 101t-10 111zM846 1733q0 12 14 20q105 67 176.5 136t139.5 159q113 0 172 -28.5t59 -75.5q0 -30 -33 -63t-94 -62q-66 -37 -161 -70.5t-187 -50.5q-26 -5 -56 6t-30 29z" />
<glyph unicode="&#xdb;" horiz-adv-x="1439" d="M178 326q0 50 6 96q14 102 103.5 490.5t93.5 476.5q0 36 -7 59t-23 47t-19 29q41 35 119 52t139 17q106 0 112 -92q0 -73 -31.5 -221.5t-83 -354t-71.5 -298.5q-41 -185 -41 -273q0 -90 37.5 -139t110.5 -49q66 0 141.5 44.5t148.5 131.5q68 93 131 326q55 201 109 432.5 t72 357.5q1 5 -4 41q-4 30 9.5 50t42.5 29t57 12t65 3q100 0 132 -15t32 -60q-1 -19 -7 -42t-18 -56.5t-18 -55.5q-222 -746 -222 -1038q0 -52 6 -93q13 -82 30.5 -129t51.5 -77q-116 -80 -254 -68q-40 4 -66 23t-37.5 51t-15 61t-3.5 72v72q-1 4 -2 4 q-59 -68 -109.5 -115.5t-112 -89.5t-130 -63t-144.5 -21q-73 0 -130.5 21t-94 56t-61 84t-34.5 101t-10 111z" />
<glyph unicode="&#xdc;" horiz-adv-x="1439" d="M178 326q0 50 6 96q14 102 103.5 490.5t93.5 476.5q0 36 -7 59t-23 47t-19 29q41 35 119 52t139 17q106 0 112 -92q0 -73 -31.5 -221.5t-83 -354t-71.5 -298.5q-41 -185 -41 -273q0 -90 37.5 -139t110.5 -49q66 0 141.5 44.5t148.5 131.5q68 93 131 326q55 201 109 432.5 t72 357.5q1 5 -4 41q-4 30 9.5 50t42.5 29t57 12t65 3q100 0 132 -15t32 -60q-1 -19 -7 -42t-18 -56.5t-18 -55.5q-222 -746 -222 -1038q0 -52 6 -93q13 -82 30.5 -129t51.5 -77q-116 -80 -254 -68q-40 4 -66 23t-37.5 51t-15 61t-3.5 72v72q-1 4 -2 4 q-59 -68 -109.5 -115.5t-112 -89.5t-130 -63t-144.5 -21q-73 0 -130.5 21t-94 56t-61 84t-34.5 101t-10 111zM662 1804q0 45 12 92t12 60q84 43 154 43q59 0 93 -27.5t34 -77.5q0 -48 -35 -135q-82 -49 -164 -49q-45 0 -75.5 22t-30.5 72zM1104 1804q0 45 12 92t12 60 q84 43 154 43q59 0 93 -27.5t34 -77.5q0 -48 -35 -135q-82 -49 -164 -49q-45 0 -75.5 22t-30.5 72z" />
<glyph unicode="&#xdd;" horiz-adv-x="1263" d="M199 1479q8 -3 24.5 -12t26.5 -13q83 -37 172 -263t139 -538q-9 -69 -44 -158t-71 -157.5t-65 -146t-29 -130.5q0 -94 129 -94q115 0 215 51q-22 60 -22 111q0 104 84.5 304t189.5 341q28 37 100.5 123t131.5 160t122 162.5t99.5 169t36.5 139.5q0 62 -56.5 97.5 t-162.5 35.5q-40 0 -60 -4q6 -35 6 -70q0 -73 -24 -125q-15 -33 -28.5 -59.5t-26 -49t-41.5 -70t-52.5 -85.5t-83 -134t-110.5 -179q-90 438 -160 600q-51 123 -172 123q-133 0 -268 -129zM696 1733q0 10 13 20q79 52 118 80q121 95 179 184q4 6 9.5 16.5t8.5 14.5h31 q80 0 114 -14q41 -17 63.5 -41t22.5 -49q0 -12 -6 -21q-18 -55 -119 -104q-66 -37 -162 -70.5t-188 -50.5q-6 -2 -20 -2q-16 0 -40 11.5t-24 25.5z" />
<glyph unicode="&#xdf;" horiz-adv-x="1181" d="M18 -125q59 139 121 381q31 92 65.5 294.5t47.5 260.5q166 724 645 737q320 0 320 -235q0 -66 -27 -117t-78 -100q-98 -86 -139 -137t-41 -91q0 -61 49 -129q89 -120 134.5 -208t45.5 -164q0 -105 -68.5 -196.5t-174 -142.5t-216.5 -51q-171 0 -186 101q0 24 8 48 t18 40.5t33 50.5q17 -45 60.5 -72.5t95.5 -27.5q71 0 110.5 45t39.5 127q0 29 -30 82.5t-65.5 105.5t-65.5 119.5t-30 120.5t38 126t83 135.5t83 142.5t38 145q0 62 -26 96.5t-70 34.5q-90 0 -151 -119t-126 -391q-63 -267 -170 -750q-18 -76 -46.5 -142.5t-49.5 -100 t-53 -78.5q-52 -23 -90 -23q-28 0 -66 17q-38 3 -52 18t-14 47z" />
<glyph unicode="&#xe0;" horiz-adv-x="1183" d="M76 270q3 146 58.5 298.5t143.5 273t206.5 197.5t238.5 77q127 0 201 -57q50 53 129 53q89 0 182 -49q-56 -83 -128.5 -368.5t-72.5 -407.5q0 -18 1 -31.5t3 -27t7 -21t12 -6.5q22 3 43 19t57 52q93 103 125 103q10 0 10 -19q0 -54 -36.5 -121t-90 -121.5t-118 -92 t-117.5 -37.5q-87 0 -134.5 54.5t-47.5 162.5q0 94 10 166q-231 -376 -439 -385h-22q-221 0 -221 288zM375 303q6 -106 67 -106q59 0 185 188q75 109 139 234.5t100 224.5q-16 59 -63.5 89t-100.5 30q-78 0 -156 -109.5t-124.5 -263.5t-46.5 -287zM453 1503q0 43 77 83.5 t164 27.5q6 -9 29.5 -44.5t33.5 -49.5t30.5 -40.5t40.5 -46.5t44 -40q13 -10 49.5 -36t56 -42t19.5 -23q0 -18 -31 -29t-57 -6q-185 36 -320.5 110t-135.5 136z" />
<glyph unicode="&#xe1;" horiz-adv-x="1183" d="M76 270q3 146 58.5 298.5t143.5 273t206.5 197.5t238.5 77q127 0 201 -57q50 53 129 53q89 0 182 -49q-56 -83 -128.5 -368.5t-72.5 -407.5q0 -18 1 -31.5t3 -27t7 -21t12 -6.5q22 3 43 19t57 52q93 103 125 103q10 0 10 -19q0 -54 -36.5 -121t-90 -121.5t-118 -92 t-117.5 -37.5q-87 0 -134.5 54.5t-47.5 162.5q0 94 10 166q-231 -376 -439 -385h-22q-221 0 -221 288zM375 303q6 -106 67 -106q59 0 185 188q75 109 139 234.5t100 224.5q-16 59 -63.5 89t-100.5 30q-78 0 -156 -109.5t-124.5 -263.5t-46.5 -287zM647 1290q0 12 15 21 q105 67 176 135.5t139 159.5q113 0 172 -28.5t59 -76.5q0 -30 -33 -63t-94 -62q-66 -37 -161 -70.5t-187 -50.5q-26 -5 -56 6t-30 29z" />
<glyph unicode="&#xe2;" horiz-adv-x="1183" d="M76 270q3 146 58.5 298.5t143.5 273t206.5 197.5t238.5 77q127 0 201 -57q50 53 129 53q89 0 182 -49q-56 -83 -128.5 -368.5t-72.5 -407.5q0 -18 1 -31.5t3 -27t7 -21t12 -6.5q22 3 43 19t57 52q93 103 125 103q10 0 10 -19q0 -54 -36.5 -121t-90 -121.5t-118 -92 t-117.5 -37.5q-87 0 -134.5 54.5t-47.5 162.5q0 94 10 166q-231 -376 -439 -385h-22q-221 0 -221 288zM375 303q6 -106 67 -106q59 0 185 188q75 109 139 234.5t100 224.5q-16 59 -63.5 89t-100.5 30q-78 0 -156 -109.5t-124.5 -263.5t-46.5 -287zM475 1288q88 76 162 139 q218 191 303 191q31 0 49 -12q24 -66 83.5 -155t121.5 -148q-38 -46 -102 -46q-34 0 -100 46t-130 116q-93 -71 -186.5 -116.5t-140.5 -45.5q-60 0 -60 31z" />
<glyph unicode="&#xe3;" horiz-adv-x="1183" d="M76 270q3 146 58.5 298.5t143.5 273t206.5 197.5t238.5 77q127 0 201 -57q50 53 129 53q89 0 182 -49q-56 -83 -128.5 -368.5t-72.5 -407.5q0 -18 1 -31.5t3 -27t7 -21t12 -6.5q22 3 43 19t57 52q93 103 125 103q10 0 10 -19q0 -54 -36.5 -121t-90 -121.5t-118 -92 t-117.5 -37.5q-87 0 -134.5 54.5t-47.5 162.5q0 94 10 166q-231 -376 -439 -385h-22q-221 0 -221 288zM375 303q6 -106 67 -106q59 0 185 188q75 109 139 234.5t100 224.5q-16 59 -63.5 89t-100.5 30q-78 0 -156 -109.5t-124.5 -263.5t-46.5 -287zM412 1323q0 8 1 17t2.5 20 t2.5 18q21 99 82 166q63 66 149 66q45 1 99.5 -19.5t134.5 -62.5q145 -74 198 -74q7 0 23 4q67 17 92 133q8 19 10 31q2 2 6 2q8 0 23 -6q26 -12 35.5 -29t9.5 -47q-15 -112 -86 -186q-67 -76 -158 -76q-75 0 -229 84q-136 76 -193 76q-16 0 -26 -4q-63 -18 -90 -127 q-2 -6 -7.5 -17.5t-7.5 -17.5q-2 -2 -6 -2q-23 0 -43 16q-22 17 -22 35z" />
<glyph unicode="&#xe4;" horiz-adv-x="1183" d="M76 270q3 146 58.5 298.5t143.5 273t206.5 197.5t238.5 77q127 0 201 -57q50 53 129 53q89 0 182 -49q-56 -83 -128.5 -368.5t-72.5 -407.5q0 -18 1 -31.5t3 -27t7 -21t12 -6.5q22 3 43 19t57 52q93 103 125 103q10 0 10 -19q0 -54 -36.5 -121t-90 -121.5t-118 -92 t-117.5 -37.5q-87 0 -134.5 54.5t-47.5 162.5q0 94 10 166q-231 -376 -439 -385h-22q-221 0 -221 288zM375 303q6 -106 67 -106q59 0 185 188q75 109 139 234.5t100 224.5q-16 59 -63.5 89t-100.5 30q-78 0 -156 -109.5t-124.5 -263.5t-46.5 -287zM485 1376q0 45 12.5 92 t12.5 60q84 43 154 43q59 0 93 -27.5t34 -77.5q0 -48 -35 -135q-82 -49 -164 -49q-46 0 -76.5 22t-30.5 72zM928 1376q0 45 12 92t12 60q84 43 154 43q59 0 93 -27.5t34 -77.5q0 -48 -35 -135q-82 -49 -164 -49q-45 0 -75.5 22t-30.5 72z" />
<glyph unicode="&#xe5;" horiz-adv-x="1183" d="M76 270q3 146 58.5 298.5t143.5 273t206.5 197.5t238.5 77q127 0 201 -57q50 53 129 53q89 0 182 -49q-56 -83 -128.5 -368.5t-72.5 -407.5q0 -18 1 -31.5t3 -27t7 -21t12 -6.5q22 3 43 19t57 52q93 103 125 103q10 0 10 -19q0 -54 -36.5 -121t-90 -121.5t-118 -92 t-117.5 -37.5q-87 0 -134.5 54.5t-47.5 162.5q0 94 10 166q-231 -376 -439 -385h-22q-221 0 -221 288zM375 303q6 -106 67 -106q59 0 185 188q75 109 139 234.5t100 224.5q-16 59 -63.5 89t-100.5 30q-78 0 -156 -109.5t-124.5 -263.5t-46.5 -287zM586 1485 q22 94 111.5 160.5t193.5 66.5t163.5 -66.5t37.5 -160.5t-111 -158.5t-195 -64.5q-105 0 -163.5 65t-36.5 158zM733 1489q-9 -43 15.5 -71.5t68.5 -28.5q43 0 80.5 29t46.5 71q9 38 -15 66t-67 28q-44 0 -82 -28t-47 -66z" />
<glyph unicode="&#xe6;" horiz-adv-x="1619" d="M80 281q3 162 65.5 320t169.5 292q119 150 265 201q79 27 182 20q95 -3 158 -55q20 32 57.5 44t74 8t74.5 -17q-5 -14 -10 -29.5t-11 -34.5t-9 -29q119 89 260 113q152 23 241 -31q53 -32 72.5 -92.5t5.5 -124.5q-25 -114 -159 -223q-106 -83 -310 -166 q-103 -44 -139 -82q-45 -47 -6 -157q19 -49 62.5 -74t91.5 -24t98 12q135 33 293 165q5 -4 8.5 -8.5t5.5 -11t3.5 -11t2 -13.5t0.5 -12v-13.5v-11.5q-3 -42 -24 -72q-37 -51 -121 -98q-145 -79 -332 -86q-198 -4 -295 86q-94 89 -94 292q-100 -154 -203 -247 q-140 -128 -270 -131q-56 -2 -102.5 26.5t-71.5 77.5q-37 77 -33 197zM377 317q0 -30 4.5 -52.5t14 -43.5t28 -23t45.5 9q35 17 84 74q46 53 100 139q115 187 181 342q14 30 32 74q8 24 -24 67q-40 46 -121 60q-69 10 -139 -64q-49 -49 -95 -143q-74 -150 -104 -353 q-2 -16 -4 -36t-2 -50zM1059 494q19 41 53 70.5t91.5 62.5t74.5 45q69 51 100 102q52 89 33 156q-10 31 -40 44t-64 5q-62 -13 -109 -86q-70 -100 -119 -307q-3 -15 -10 -46t-10 -46z" />
<glyph unicode="&#xe7;" horiz-adv-x="933" d="M88 326q0 201 94.5 384t256.5 295.5t347 112.5q258 0 258 -129q0 -56 -52.5 -101t-139.5 -73q-20 90 -52 125t-93 35q-132 0 -216.5 -160.5t-84.5 -433.5q0 -102 38 -166.5t117 -64.5q108 0 210 49t173 133q17 -33 17 -70q0 -62 -54 -117.5t-133.5 -90t-164 -54.5 t-152.5 -20q-369 0 -369 346zM209 -360q0 21 12 49q52 -13 92 -13q70 0 120 18t50 46q0 35 -20 48t-73 25q-9 2 -13 3q-9 48 24 86q31 39 82 39q19 0 23 -2q-19 -38 -19 -50q179 -31 179 -120q0 -78 -88.5 -131.5t-239.5 -53.5q-29 0 -48.5 1.5t-40 7t-30.5 17.5t-10 30z " />
<glyph unicode="&#xe8;" horiz-adv-x="983" d="M92 295q-7 158 46 306.5t159 264.5q102 122 230.5 187t265.5 65q128 0 190.5 -54t60.5 -159q0 -107 -127 -225.5t-329 -190.5q-29 -10 -60 -24t-64 -32t-54.5 -39t-22.5 -40q-3 -79 23 -118q34 -50 86.5 -76t109.5 -19q105 10 192.5 55.5t170.5 125.5q22 -38 18.5 -82.5 t-31.5 -79.5q-57 -70 -153 -111q-150 -69 -324 -69q-182 0 -281 79t-106 236zM393 1501q0 43 77.5 83.5t164.5 27.5q6 -9 29.5 -44.5t33.5 -49.5t30.5 -40.5t40.5 -46.5t44 -40q13 -10 49.5 -36t56 -42t19.5 -23q0 -18 -31 -29t-57 -6q-185 37 -321 110.5t-136 135.5z M408 494q6 14 14.5 26.5t15.5 22t20 20t20 16t24 15.5t23.5 13.5t27.5 15t27 14.5q90 50 130.5 99.5t57.5 111.5q16 57 -4.5 95t-73.5 38q-83 0 -150.5 -102t-111.5 -293q-8 -35 -20 -92z" />
<glyph unicode="&#xe9;" horiz-adv-x="983" d="M92 295q-7 158 46 306.5t159 264.5q102 122 230.5 187t265.5 65q128 0 190.5 -54t60.5 -159q0 -107 -127 -225.5t-329 -190.5q-29 -10 -60 -24t-64 -32t-54.5 -39t-22.5 -40q-3 -79 23 -118q34 -50 86.5 -76t109.5 -19q105 10 192.5 55.5t170.5 125.5q22 -38 18.5 -82.5 t-31.5 -79.5q-57 -70 -153 -111q-150 -69 -324 -69q-182 0 -281 79t-106 236zM408 494q6 14 14.5 26.5t15.5 22t20 20t20 16t24 15.5t23.5 13.5t27.5 15t27 14.5q90 50 130.5 99.5t57.5 111.5q16 57 -4.5 95t-73.5 38q-83 0 -150.5 -102t-111.5 -293q-8 -35 -20 -92z M590 1290q0 13 14 21q105 67 176.5 136t139.5 159q113 0 172 -28.5t59 -76.5q0 -30 -33 -63t-94 -62q-66 -37 -161 -70.5t-187 -50.5q-26 -5 -56 6t-30 29z" />
<glyph unicode="&#xea;" horiz-adv-x="980" d="M92 295q-7 158 46 306.5t159 264.5q102 122 230.5 187t265.5 65q128 0 190.5 -54t60.5 -159q0 -107 -127 -225.5t-329 -190.5q-29 -10 -60 -24t-64 -32t-54.5 -39t-22.5 -40q-3 -79 23 -118q34 -50 86.5 -76t109.5 -19q105 10 192.5 55.5t170.5 125.5q22 -38 18.5 -82.5 t-31.5 -79.5q-57 -70 -153 -111q-150 -69 -324 -69q-182 0 -281 79t-106 236zM373 1288q88 76 162 139q218 191 303 191q31 0 49 -12q24 -66 83.5 -155t121.5 -148q-38 -46 -103 -46q-34 0 -99.5 46t-129.5 116q-93 -70 -187 -116t-141 -46q-59 0 -59 31zM408 494 q6 14 14.5 26.5t15.5 22t20 20t20 16t24 15.5t23.5 13.5t27.5 15t27 14.5q90 50 130.5 99.5t57.5 111.5q16 57 -4.5 95t-73.5 38q-83 0 -150.5 -102t-111.5 -293q-8 -35 -20 -92z" />
<glyph unicode="&#xeb;" horiz-adv-x="983" d="M92 295q-7 158 46 306.5t159 264.5q102 122 230.5 187t265.5 65q128 0 190.5 -54t60.5 -159q0 -107 -127 -225.5t-329 -190.5q-29 -10 -60 -24t-64 -32t-54.5 -39t-22.5 -40q-3 -79 23 -118q34 -50 86.5 -76t109.5 -19q105 10 192.5 55.5t170.5 125.5q22 -38 18.5 -82.5 t-31.5 -79.5q-57 -70 -153 -111q-150 -69 -324 -69q-182 0 -281 79t-106 236zM408 494q6 14 14.5 26.5t15.5 22t20 20t20 16t24 15.5t23.5 13.5t27.5 15t27 14.5q90 50 130.5 99.5t57.5 111.5q16 57 -4.5 95t-73.5 38q-83 0 -150.5 -102t-111.5 -293q-8 -35 -20 -92z M414 1376q0 45 12 92t12 60q84 43 154 43q59 0 93 -27.5t34 -77.5q0 -48 -35 -135q-82 -49 -164 -49q-45 0 -75.5 22t-30.5 72zM856 1376q0 45 12.5 92t12.5 60q84 43 153 43q59 0 93 -27.5t34 -77.5q0 -48 -35 -135q-82 -49 -163 -49q-46 0 -76.5 22t-30.5 72z" />
<glyph unicode="&#xec;" horiz-adv-x="604" d="M172 176q12 -188 182 -188q80 0 184 80.5t146 179.5q33 76 33 110q0 63 -135 -84q-75 -71 -101 -71q-22 0 -22 88q0 113 30 248q1 4 89 331q10 37 22 103t-25 106q-31 33 -102 33q-90 0 -205 -43q31 -48 31 -102q0 -60 -10 -111q-43 -235 -76 -350q-27 -102 -36 -193 t-5 -137zM250 1501q0 43 77.5 83.5t164.5 27.5q6 -9 29.5 -44.5t33.5 -49.5t30.5 -40.5t40.5 -46.5t44 -40q13 -10 49.5 -36t56 -42t19.5 -23q0 -18 -31 -29t-57 -6q-185 37 -321 110.5t-136 135.5z" />
<glyph unicode="&#xed;" horiz-adv-x="595" d="M172 176q-4 46 5 137t36 193q33 115 76 350q10 51 10 111q0 54 -31 102q115 43 205 43q71 0 102 -33q37 -40 25 -106t-22 -103q-88 -327 -89 -331q-30 -135 -30 -248q0 -88 22 -88q26 0 101 71q135 147 135 84q0 -34 -33 -110q-42 -99 -146 -179.5t-184 -80.5 q-170 0 -182 188zM262 1290q0 13 14 21q105 67 176.5 136t139.5 159q113 0 172 -28.5t59 -76.5q0 -30 -33 -63t-94 -62q-66 -37 -161 -70.5t-187 -50.5q-26 -5 -56 6t-30 29z" />
<glyph unicode="&#xee;" horiz-adv-x="604" d="M137 1288q88 76 162 139q218 191 303 191q31 0 49 -12q24 -66 83.5 -155t121.5 -148q-38 -46 -102 -46q-34 0 -100 46t-130 116q-93 -71 -186.5 -116.5t-140.5 -45.5q-60 0 -60 31zM172 176q12 -188 182 -188q80 0 184 80.5t146 179.5q33 76 33 110q0 63 -135 -84 q-75 -71 -101 -71q-22 0 -22 88q0 113 30 248q1 4 89 331q10 37 22 103t-25 106q-31 33 -102 33q-90 0 -205 -43q31 -48 31 -102q0 -60 -10 -111q-43 -235 -76 -350q-27 -102 -36 -193t-5 -137z" />
<glyph unicode="&#xef;" horiz-adv-x="604" d="M147 1376q0 45 12.5 92t12.5 60q84 43 154 43q59 0 93 -27.5t34 -77.5q0 -48 -35 -135q-82 -49 -164 -49q-46 0 -76.5 22t-30.5 72zM172 176q-4 46 5 137t36 193q33 115 76 350q10 51 10 111q0 54 -31 102q115 43 205 43q71 0 102 -33q37 -40 25 -106t-22 -103 q-88 -327 -89 -331q-30 -135 -30 -248q0 -88 22 -88q26 0 101 71q135 147 135 84q0 -34 -33 -110q-42 -99 -146 -179.5t-184 -80.5q-170 0 -182 188zM590 1376q0 45 12 92t12 60q84 43 154 43q59 0 93 -27.5t34 -77.5q0 -48 -35 -135q-82 -49 -164 -49q-45 0 -75.5 22 t-30.5 72z" />
<glyph unicode="&#xf0;" horiz-adv-x="1114" d="M94 311q0 144 59.5 279.5t157.5 235.5t230.5 160.5t271.5 60.5q19 0 37 -3q-1 4 -9.5 33t-13.5 43.5t-15.5 44t-20.5 48.5t-24 41.5t-31 38t-36 24.5q-27 -35 -83.5 -119t-81.5 -127l-17 23q-12 17 -31 36.5t-28.5 32.5t-9.5 29q0 44 108 174h-12q-38 0 -81.5 -9t-94 -24 t-70.5 -20q6 69 27 115t57.5 69t77 32t96.5 9q74 0 166 -25q31 40 58 82.5t58 99t42 74.5q36 -39 57 -69q20 -26 20 -60t-20.5 -70.5t-48.5 -69.5t-31 -38q156 -96 240 -243.5t84 -341.5q0 -125 -35.5 -253.5t-103 -243t-158 -204.5t-209 -143t-246.5 -53q-336 0 -336 331z M399 285q0 -73 28 -113.5t75 -40.5q92 0 173 95.5t129.5 238t61.5 297.5q-12 35 -17.5 49.5t-16.5 36.5t-21.5 30.5t-26 15.5t-36.5 7q-83 0 -166 -99t-133 -243t-50 -274z" />
<glyph unicode="&#xf1;" horiz-adv-x="1210" d="M47 8q67 167 121 346q111 366 111 568q0 83 -23 133q125 57 215 57q44 0 76.5 -24t32.5 -74q0 -18 -2 -38t-6.5 -46t-8 -46.5t-12 -56t-13.5 -56t-16 -65t-16 -65.5q65 122 152.5 229t187.5 177.5t182 70.5q69 0 112.5 -42t43.5 -107q0 -119 -68 -398q-61 -210 -61 -280 q0 -88 22 -88q31 0 99 71q81 84 102 96q11 7 20 7q13 0 13 -17q0 -73 -60.5 -162t-147 -149.5t-155.5 -60.5q-85 0 -134.5 47t-49.5 141q0 25 4 55.5t8 50.5t14.5 65t14.5 63q82 357 82 409q0 45 -31 45q-75 0 -252 -280q-69 -112 -107 -195t-120 -287q-23 -59 -59.5 -84.5 t-110.5 -25.5q-54 0 -160 16zM352 1323q0 8 1 17t2.5 20t2.5 18q21 99 82 166q63 66 150 66q45 1 98.5 -19.5t134.5 -62.5q145 -74 199 -74q6 0 22 4q68 17 93 133q8 19 10 31q2 2 6 2q8 0 23 -6q26 -12 35.5 -29t9.5 -47q-15 -112 -86 -186q-67 -76 -158 -76q-75 0 -229 84 q-136 76 -193 76q-17 0 -27 -4q-63 -18 -90 -127q-2 -6 -7 -17.5t-7 -17.5q-2 -2 -6 -2q-23 0 -43 16q-23 18 -23 35z" />
<glyph unicode="&#xf2;" horiz-adv-x="1095" d="M100 360q0 295 199 529q206 229 465 229q169 0 272 -98t103 -266q0 -143 -53 -283.5t-141.5 -248.5t-212.5 -175t-257 -67q-171 0 -273 101.5t-102 278.5zM401 338q0 -97 33 -153t103 -56q64 0 121.5 64t95 160t59 203t21.5 198q0 213 -132 213q-52 0 -100.5 -42.5 t-84 -111t-62.5 -152t-40.5 -167.5t-13.5 -156zM410 1501q0 43 77 83.5t164 27.5q6 -9 29.5 -44.5t33.5 -49.5t30.5 -40.5t40.5 -46.5t44 -40q13 -10 49.5 -36t56 -42t19.5 -23q0 -18 -31 -29t-57 -6q-185 36 -320.5 110t-135.5 136z" />
<glyph unicode="&#xf3;" horiz-adv-x="1095" d="M100 360q0 295 199 529q206 229 465 229q169 0 272 -98t103 -266q0 -143 -53 -283.5t-141.5 -248.5t-212.5 -175t-257 -67q-171 0 -273 101.5t-102 278.5zM401 338q0 -97 33 -153t103 -56q64 0 121.5 64t95 160t59 203t21.5 198q0 213 -132 213q-52 0 -100.5 -42.5 t-84 -111t-62.5 -152t-40.5 -167.5t-13.5 -156zM584 1290q0 13 14 21q105 67 176 135.5t139 159.5q113 0 172.5 -28.5t59.5 -76.5q0 -30 -33 -63t-94 -62q-66 -37 -161 -70.5t-187 -50.5q-26 -5 -56 6t-30 29z" />
<glyph unicode="&#xf4;" horiz-adv-x="1095" d="M100 360q0 295 199 529q206 229 465 229q169 0 272 -98t103 -266q0 -143 -53 -283.5t-141.5 -248.5t-212.5 -175t-257 -67q-171 0 -273 101.5t-102 278.5zM401 338q0 -97 33 -153t103 -56q64 0 121.5 64t95 160t59 203t21.5 198q0 213 -132 213q-52 0 -100.5 -42.5 t-84 -111t-62.5 -152t-40.5 -167.5t-13.5 -156zM410 1288q87 76 161 139q218 191 303 191q32 0 50 -12q24 -66 83.5 -155t120.5 -148q-38 -46 -102 -46q-34 0 -99.5 46t-129.5 116q-93 -70 -187 -116t-141 -46q-59 0 -59 31z" />
<glyph unicode="&#xf5;" horiz-adv-x="1095" d="M100 360q0 295 199 529q206 229 465 229q169 0 272 -98t103 -266q0 -143 -53 -283.5t-141.5 -248.5t-212.5 -175t-257 -67q-171 0 -273 101.5t-102 278.5zM348 1323q0 8 1 17t2.5 20t2.5 18q21 99 82 166q63 66 150 66q45 1 98.5 -19.5t134.5 -62.5q145 -74 199 -74 q6 0 22 4q68 17 93 133q8 19 10 31q2 2 6 2q7 0 22 -6q26 -12 36 -29t10 -47q-15 -111 -87 -186q-67 -76 -157 -76q-76 0 -230 84q-136 76 -192 76q-17 0 -27 -4q-63 -18 -90 -127q-2 -6 -7 -17.5t-7 -17.5q-2 -2 -6 -2q-23 0 -43 16q-23 18 -23 35zM401 338q0 -97 33 -153 t103 -56q64 0 121.5 64t95 160t59 203t21.5 198q0 213 -132 213q-52 0 -100.5 -42.5t-84 -111t-62.5 -152t-40.5 -167.5t-13.5 -156z" />
<glyph unicode="&#xf6;" horiz-adv-x="1095" d="M100 360q0 295 199 529q206 229 465 229q169 0 272 -98t103 -266q0 -143 -53 -283.5t-141.5 -248.5t-212.5 -175t-257 -67q-171 0 -273 101.5t-102 278.5zM401 338q0 -97 33 -153t103 -56q64 0 121.5 64t95 160t59 203t21.5 198q0 213 -132 213q-52 0 -100.5 -42.5 t-84 -111t-62.5 -152t-40.5 -167.5t-13.5 -156zM440 1376q0 45 12.5 92t12.5 60q84 43 153 43q59 0 93 -27.5t34 -77.5q0 -51 -34 -135q-82 -49 -164 -49q-46 0 -76.5 22t-30.5 72zM883 1376q0 45 12 92t12 60q84 43 154 43q59 0 93 -27.5t34 -77.5q0 -48 -35 -135 q-82 -49 -164 -49q-45 0 -75.5 22t-30.5 72z" />
<glyph unicode="&#xf7;" horiz-adv-x="1107" d="M154 459q8 47 18 80.5t21 57.5t28.5 39.5t32.5 24t43 13t51 5.5t63 2q29 1 44 1h340q139 2 299 31q-31 -107 -60 -150t-80 -55q-161 -23 -358 -23h-190q-136 0 -252 -26zM389 117q0 14 6 56.5t6 53.5q0 18 -6 39q82 72 172 72q61 0 97 -29.5t36 -79.5q0 -3 -1 -8t-1 -8 q-5 -48 -34 -133q-68 -40 -146 -47q-129 0 -129 84zM563 918q0 11 6 54.5t6 55.5q0 20 -8 39q82 72 172 72q62 0 97.5 -30.5t35.5 -78.5q0 -3 -1 -8t-1 -8q-5 -37 -34 -133q-82 -45 -144 -45q-126 0 -129 82z" />
<glyph unicode="&#xf8;" horiz-adv-x="1095" d="M66 -115q15 28 133 195q-105 105 -105 280q0 139 54 276.5t143 243.5t213 172t256 66q95 0 180 -37q1 2 5 6q15 21 27.5 34.5t37 35.5t56.5 33.5t69 11.5q50 0 75 -2q-90 -77 -180 -180q103 -98 103 -266q0 -143 -53 -284t-141.5 -248.5t-212.5 -174.5t-257 -67 q-93 0 -170 30q-14 -22 -35.5 -57.5t-32 -52t-25 -36t-25 -27t-21.5 -7.5q-19 0 -48.5 19t-45.5 36zM397 362q7 9 33 45t57 77.5t114.5 152t201.5 264.5q-33 64 -107 64q-62 0 -118.5 -60.5t-94 -152.5t-60.5 -195t-26 -195zM422 199q32 -72 108 -72q74 0 143.5 92 t111.5 240.5t42 304.5q-19 -25 -199 -276.5t-206 -288.5z" />
<glyph unicode="&#xf9;" horiz-adv-x="1206" d="M139 190q0 81 74 390t74 385q0 63 -21 104q110 43 201 43q119 0 119 -113q0 -28 -21 -125q-18 -80 -47.5 -200t-45 -185.5t-28 -133.5t-12.5 -103q0 -53 39 -53q44 0 129 97.5t168 246.5q158 289 158 471q0 39 -15 69q85 29 176 29q125 -8 125 -111q0 -57 -26 -153 q-10 -35 -33 -116.5t-34.5 -124.5t-26 -105.5t-21 -110.5t-6.5 -90q0 -88 22 -88q25 0 76 44t95 88t53 44q12 0 12 -18q0 -71 -60 -160t-147 -151t-158 -62q-88 0 -135 55t-47 164q0 53 19 158q-121 -197 -238.5 -296t-239.5 -99q-54 0 -91.5 17.5t-55 49.5t-24.5 65.5 t-7 77.5zM422 1501q0 43 77.5 83.5t164.5 27.5q6 -9 29.5 -44.5t33.5 -49.5t30.5 -40.5t40.5 -46.5t44 -40q13 -10 49.5 -36t56 -42t19.5 -23q0 -18 -31 -29t-57 -6q-185 37 -321 110.5t-136 135.5z" />
<glyph unicode="&#xfa;" horiz-adv-x="1206" d="M139 190q0 81 74 390t74 385q0 63 -21 104q110 43 201 43q119 0 119 -113q0 -28 -21 -125q-18 -80 -47.5 -200t-45 -185.5t-28 -133.5t-12.5 -103q0 -53 39 -53q44 0 129 97.5t168 246.5q158 289 158 471q0 39 -15 69q85 29 176 29q125 -8 125 -111q0 -57 -26 -153 q-10 -35 -33 -116.5t-34.5 -124.5t-26 -105.5t-21 -110.5t-6.5 -90q0 -88 22 -88q25 0 76 44t95 88t53 44q12 0 12 -18q0 -71 -60 -160t-147 -151t-158 -62q-88 0 -135 55t-47 164q0 53 19 158q-121 -197 -238.5 -296t-239.5 -99q-54 0 -91.5 17.5t-55 49.5t-24.5 65.5 t-7 77.5zM602 1290q0 13 14 21q105 67 176.5 136t139.5 159q113 0 172 -28.5t59 -76.5q0 -30 -33 -63t-94 -62q-66 -37 -161 -70.5t-187 -50.5q-26 -5 -56 6t-30 29z" />
<glyph unicode="&#xfb;" horiz-adv-x="1206" d="M139 190q0 81 74 390t74 385q0 63 -21 104q110 43 201 43q119 0 119 -113q0 -28 -21 -125q-18 -80 -47.5 -200t-45 -185.5t-28 -133.5t-12.5 -103q0 -53 39 -53q44 0 129 97.5t168 246.5q158 289 158 471q0 39 -15 69q85 29 176 29q125 -8 125 -111q0 -57 -26 -153 q-10 -35 -33 -116.5t-34.5 -124.5t-26 -105.5t-21 -110.5t-6.5 -90q0 -88 22 -88q25 0 76 44t95 88t53 44q12 0 12 -18q0 -71 -60 -160t-147 -151t-158 -62q-88 0 -135 55t-47 164q0 53 19 158q-121 -197 -238.5 -296t-239.5 -99q-54 0 -91.5 17.5t-55 49.5t-24.5 65.5 t-7 77.5zM410 1288q87 76 161 139q218 191 303 191q32 0 50 -12q24 -66 83.5 -155t120.5 -148q-38 -46 -102 -46q-34 0 -99.5 46t-129.5 116q-93 -70 -187 -116t-141 -46q-59 0 -59 31z" />
<glyph unicode="&#xfc;" horiz-adv-x="1206" d="M139 190q0 81 74 390t74 385q0 63 -21 104q110 43 201 43q119 0 119 -113q0 -28 -21 -125q-18 -80 -47.5 -200t-45 -185.5t-28 -133.5t-12.5 -103q0 -53 39 -53q44 0 129 97.5t168 246.5q158 289 158 471q0 39 -15 69q85 29 176 29q125 -8 125 -111q0 -57 -26 -153 q-10 -35 -33 -116.5t-34.5 -124.5t-26 -105.5t-21 -110.5t-6.5 -90q0 -88 22 -88q25 0 76 44t95 88t53 44q12 0 12 -18q0 -71 -60 -160t-147 -151t-158 -62q-88 0 -135 55t-47 164q0 53 19 158q-121 -197 -238.5 -296t-239.5 -99q-54 0 -91.5 17.5t-55 49.5t-24.5 65.5 t-7 77.5zM440 1376q0 45 12.5 92t12.5 60q84 43 153 43q59 0 93 -27.5t34 -77.5q0 -51 -34 -135q-82 -49 -164 -49q-46 0 -76.5 22t-30.5 72zM883 1376q0 45 12 92t12 60q84 43 154 43q59 0 93 -27.5t34 -77.5q0 -48 -35 -135q-82 -49 -164 -49q-45 0 -75.5 22t-30.5 72z " />
<glyph unicode="&#xfd;" horiz-adv-x="1044" d="M-158 -311q0 53 37 133q14 -12 46 -22.5t57 -10.5q91 0 181 66t165 174q18 26 18 94q0 40 -8 102q-89 723 -203 811q127 76 232 76q120 0 143 -168q49 -329 72 -665q157 222 251.5 412.5t94.5 297.5q0 29 -14.5 70t-32.5 61q38 6 75 6q112 0 163.5 -34t51.5 -105 q0 -96 -146 -344t-392 -571q-145 -193 -264.5 -307.5t-203.5 -155.5t-165 -41q-138 0 -156 98q-2 6 -2 23zM537 1290q0 12 12 21q91 60 119 80q119 94 178 184q4 6 9.5 16.5t8.5 14.5h31q79 0 115 -15q41 -17 63.5 -41t22.5 -49q0 -11 -6 -20q-18 -56 -119 -105 q-66 -37 -162 -70.5t-188 -50.5q-6 -2 -21 -2q-16 0 -39.5 11.5t-23.5 25.5z" />
<glyph unicode="&#xff;" horiz-adv-x="1044" d="M-158 -311q0 53 37 133q14 -12 46 -22.5t57 -10.5q91 0 181 66t165 174q18 26 18 94q0 40 -8 102q-89 723 -203 811q127 76 232 76q120 0 143 -168q49 -329 72 -665q157 222 251.5 412.5t94.5 297.5q0 29 -14.5 70t-32.5 61q38 6 75 6q112 0 163.5 -34t51.5 -105 q0 -96 -146 -344t-392 -571q-145 -193 -264.5 -307.5t-203.5 -155.5t-165 -41q-138 0 -156 98q-2 6 -2 23zM346 1376q0 45 12.5 92t12.5 60q84 43 153 43q59 0 93 -27.5t34 -77.5q0 -48 -35 -135q-82 -49 -163 -49q-46 0 -76.5 22t-30.5 72zM788 1376q0 45 12.5 92t12.5 60 q84 43 154 43q59 0 93 -27.5t34 -77.5q0 -48 -35 -135q-82 -49 -164 -49q-46 0 -76.5 22t-30.5 72z" />
<glyph unicode="&#x152;" horiz-adv-x="1970" d="M152 475q0 160 41.5 323t121 308t185 258t244 179.5t288.5 66.5q144 0 246 -60q235 27 534 27q44 0 117.5 4t98.5 4q62 0 91.5 -7.5t49.5 -29.5q-12 -83 -55.5 -148t-106.5 -65q-8 0 -29 12.5t-58 25.5t-85 13h-76q-30 0 -81.5 2.5t-71.5 2.5h-90q24 -27 24 -62 q0 -23 -4 -33q-56 -263 -88 -393h121q168 0 362 31q0 -22 -6 -49q-11 -40 -28 -69.5t-42 -48.5t-50 -30.5t-63 -17t-69.5 -7t-79.5 -1.5h-123h-61q-74 -230 -74 -373q0 -24 4.5 -44.5t10 -35t19 -26.5t21.5 -19.5t27.5 -13t27.5 -8t31 -4t29.5 -1.5h31h26.5q91 0 184 22 t155.5 44t79.5 22q0 -63 -16 -110t-49 -78.5t-74 -51.5t-103 -30.5t-122.5 -14t-144.5 -3.5q-48 0 -143 1t-142 1q-82 0 -120 28t-48 84q-199 -149 -418 -149q-223 0 -336.5 134.5t-113.5 389.5zM467 506q0 -120 22 -207.5t74.5 -137.5t132.5 -38q90 14 171 90.5 t137.5 185.5t98 237t61.5 248t20 216q0 156 -56 247t-174 91q-90 0 -181.5 -93.5t-157 -233t-107 -303.5t-41.5 -302z" />
<glyph unicode="&#x153;" horiz-adv-x="1630" d="M96 360q0 289 197 525q195 233 467 233q199 0 293 -157q179 159 391 159q244 0 244 -213q-2 -107 -125 -226t-318 -189q-41 -16 -79.5 -35t-76 -49t-38.5 -54q-6 -215 174 -215q178 0 387 178q20 -17 20 -63q0 -62 -26 -94q-55 -68 -154 -113q-152 -67 -324 -67 q-214 0 -305 133q-72 -63 -164 -98t-190 -35q-174 0 -274 106q-99 105 -99 274zM399 354q0 -223 133 -223q126 0 207 215q60 162 72 334q6 49 6 92q0 195 -117 195q-63 0 -120 -59t-101 -165q-80 -196 -80 -389zM1065 494q7 16 15.5 29.5t21 25.5t20 19.5t26 19.5t24.5 15.5 t29.5 17t29.5 16.5q89 51 127.5 100.5t56.5 110.5q14 57 -5.5 96t-70.5 39q-79 0 -145 -103t-109 -294q-8 -35 -20 -92z" />
<glyph unicode="&#x178;" horiz-adv-x="1263" d="M199 1479q135 129 268 129q121 0 172 -123q70 -162 160 -600q51 83 110.5 179t83 134t52.5 85.5t41.5 70t26 49t28.5 59.5q24 52 24 125q0 35 -6 70q20 4 60 4q106 0 162.5 -35.5t56.5 -97.5q0 -59 -36.5 -139.5t-99.5 -169t-122 -162.5t-131.5 -160t-100.5 -123 q-105 -141 -189.5 -341t-84.5 -304q0 -51 22 -111q-100 -51 -215 -51q-129 0 -129 94q0 53 29 130.5t65 146t71 157.5t44 158q-50 312 -139 538t-172 263q-10 4 -26.5 13t-24.5 12zM565 1804q0 45 12.5 92t12.5 60q84 43 153 43q59 0 93 -27.5t34 -77.5q0 -51 -34 -135 q-82 -49 -164 -49q-46 0 -76.5 22t-30.5 72zM1008 1804q0 45 12 92t12 60q84 43 154 43q59 0 93 -27.5t34 -77.5q0 -48 -35 -135q-82 -49 -164 -49q-45 0 -75.5 22t-30.5 72z" />
<glyph unicode="&#x2c6;" horiz-adv-x="1024" d="M322 1288q0 12 22 27q53 36 139 112q178 153 269 185q15 6 34 6q32 0 50 -12q24 -66 83.5 -155t120.5 -148q-15 -5 -40 -16.5t-37 -16.5q-17 -13 -31 -13q-33 0 -98 48t-125 114q-210 -159 -301 -159q-40 0 -84 20q0 1 -1 3.5t-1 4.5z" />
<glyph unicode="&#x2dc;" horiz-adv-x="1024" d="M268 1321q0 8 1 17t2.5 20t2.5 18q21 99 82 166q63 66 150 66q45 1 98.5 -19.5t134.5 -62.5q145 -74 199 -74q7 0 23 4q67 17 92 133q8 19 10 31q2 2 6 2q8 0 23 -6q26 -12 35.5 -29t9.5 -47q-15 -112 -86 -186q-67 -76 -158 -76q-75 0 -229 84q-136 76 -193 76 q-17 0 -27 -4q-63 -18 -90 -127q-2 -6 -7 -17.5t-7 -17.5q-2 -2 -6 -2q-23 0 -43 16q-23 18 -23 35z" />
<glyph unicode="&#x2000;" horiz-adv-x="1036" />
<glyph unicode="&#x2001;" horiz-adv-x="2073" />
<glyph unicode="&#x2002;" horiz-adv-x="1036" />
<glyph unicode="&#x2003;" horiz-adv-x="2073" />
<glyph unicode="&#x2004;" horiz-adv-x="691" />
<glyph unicode="&#x2005;" horiz-adv-x="518" />
<glyph unicode="&#x2006;" horiz-adv-x="345" />
<glyph unicode="&#x2007;" horiz-adv-x="345" />
<glyph unicode="&#x2008;" horiz-adv-x="259" />
<glyph unicode="&#x2009;" horiz-adv-x="414" />
<glyph unicode="&#x200a;" horiz-adv-x="115" />
<glyph unicode="&#x2010;" horiz-adv-x="712" d="M164 485q0 25 12 52q35 86 64 126.5t59 53t84 12.5q11 1 24.5 1t33 -0.5t32.5 -0.5h68q117 0 204 23q13 -23 7 -50q-12 -45 -26.5 -77t-35.5 -52.5t-40.5 -32.5t-54 -17.5t-61.5 -7t-77 -1.5h-60q-72 0 -150.5 -14.5t-82.5 -14.5z" />
<glyph unicode="&#x2011;" horiz-adv-x="712" d="M164 485q0 25 12 52q35 86 64 126.5t59 53t84 12.5q11 1 24.5 1t33 -0.5t32.5 -0.5h68q117 0 204 23q13 -23 7 -50q-12 -45 -26.5 -77t-35.5 -52.5t-40.5 -32.5t-54 -17.5t-61.5 -7t-77 -1.5h-60q-72 0 -150.5 -14.5t-82.5 -14.5z" />
<glyph unicode="&#x2012;" horiz-adv-x="712" d="M164 485q0 25 12 52q35 86 64 126.5t59 53t84 12.5q11 1 24.5 1t33 -0.5t32.5 -0.5h68q117 0 204 23q13 -23 7 -50q-12 -45 -26.5 -77t-35.5 -52.5t-40.5 -32.5t-54 -17.5t-61.5 -7t-77 -1.5h-60q-72 0 -150.5 -14.5t-82.5 -14.5z" />
<glyph unicode="&#x2013;" horiz-adv-x="1024" d="M162 473q26 126 33 150q10 30 27 45t48 24q50 4 90 4q38 0 147.5 -3t176.5 -3q228 0 317 27q-13 -95 -36.5 -137.5t-73.5 -61.5q-103 -20 -256 -20h-197q-184 0 -276 -25z" />
<glyph unicode="&#x2014;" horiz-adv-x="1878" d="M162 471q15 84 59 136.5t86 70.5q105 18 275 18q101 0 315 -7t295 -9q561 0 668 35q-14 -89 -29.5 -127t-46.5 -56q-98 -34 -461 -34q-35 0 -226 2t-282 2q-551 0 -653 -31z" />
<glyph unicode="&#x2018;" horiz-adv-x="569" d="M305 1163q0 131 141 260q66 59 150 104.5t152 45.5q21 0 47 -17t26 -47q0 -10 -8 -26q-121 -21 -177 -77.5t-56 -150.5q0 -60 47 -127q-30 -28 -92 -49.5t-109 -21.5q-56 0 -88.5 23t-32.5 83z" />
<glyph unicode="&#x2019;" horiz-adv-x="569" d="M201 1120q0 11 8 27q121 21 177 77t56 150q0 60 -47 127q30 29 92 50.5t109 21.5q121 0 121 -107q0 -130 -142 -260q-66 -59 -149.5 -104t-151.5 -45q-21 0 -47 16.5t-26 46.5z" />
<glyph unicode="&#x201a;" horiz-adv-x="569" d="M-37 -133q0 11 8 27q121 21 177.5 77t56.5 150q0 60 -47 127q30 29 91.5 50t108.5 21q56 0 88.5 -23t32.5 -83q0 -131 -141 -260q-66 -59 -150 -104.5t-151 -45.5q-21 0 -47.5 17t-26.5 47z" />
<glyph unicode="&#x201c;" horiz-adv-x="1007" d="M305 1163q0 131 144 260q67 60 149.5 105t151.5 45q20 0 46.5 -17t26.5 -47q0 -10 -8 -26q-122 -21 -178.5 -77.5t-56.5 -150.5q0 -62 49 -127q-30 -28 -93 -49.5t-110 -21.5q-121 0 -121 106zM739 1163q0 130 142 260q66 59 150 104.5t151 45.5q21 0 47 -17t26 -47 q0 -10 -8 -26q-121 -21 -177 -77.5t-56 -150.5q0 -60 47 -127q-30 -28 -92 -49.5t-109 -21.5q-56 0 -88.5 23t-32.5 83z" />
<glyph unicode="&#x201d;" horiz-adv-x="1007" d="M205 1120q0 11 8 27q121 21 177 77t56 150q0 60 -47 127q30 29 92 50.5t109 21.5q121 0 121 -107q0 -131 -141 -260q-66 -59 -149.5 -104t-151.5 -45q-21 0 -47.5 16.5t-26.5 46.5zM637 1120q0 11 8 27q123 21 179.5 77t56.5 150q0 61 -50 127q30 29 93 50.5t110 21.5 q121 0 121 -107q0 -132 -143 -260q-67 -60 -149.5 -104.5t-151.5 -44.5q-20 0 -47 16.5t-27 46.5z" />
<glyph unicode="&#x201e;" horiz-adv-x="1007" d="M-31 -133q0 11 8 27q121 21 177.5 77t56.5 150q0 60 -47 127q30 28 92 49.5t109 21.5q56 0 88 -23t32 -83q0 -131 -141 -260q-66 -59 -150 -104.5t-151 -45.5q-21 0 -47.5 17t-26.5 47zM401 -133q0 9 9 27q123 21 179 77t56 150q0 62 -49 127q30 28 93 49.5t110 21.5 q121 0 121 -106q0 -131 -144 -260q-67 -60 -149.5 -105t-151.5 -45q-20 0 -47 17t-27 47z" />
<glyph unicode="&#x2022;" horiz-adv-x="1107" d="M332 539q0 49 12 104q21 99 23 113q15 68 24 129q165 76 316 76q130 0 204 -59.5t74 -176.5q0 -109 -82 -307q-167 -92 -330 -92q-218 0 -239 168q-2 12 -2 45z" />
<glyph unicode="&#x2026;" horiz-adv-x="1861" d="M170 160q0 39 4 67q70 37 131 43q6 0 17 1t16 1q55 -3 92 -32q45 -39 45 -170q-28 -45 -77 -72t-103 -27q-56 0 -89 30.5t-34 86.5q0 14 -1 38.5t-1 33.5zM791 160q0 39 4 67q70 37 131 43q6 0 18 1t17 1q53 -3 90 -32q45 -36 45 -170q-28 -44 -77.5 -71.5t-103.5 -27.5 q-56 0 -88.5 30.5t-33.5 86.5q0 14 -1 38.5t-1 33.5zM1411 162q0 16 1 38t1 27q69 37 133 43q5 0 16.5 1t16.5 1q54 0 90 -32q45 -39 45 -170q-28 -44 -77 -71.5t-101 -27.5q-57 0 -89.5 30t-33.5 87q0 16 -1 40.5t-1 33.5z" />
<glyph unicode="&#x202f;" horiz-adv-x="414" />
<glyph unicode="&#x2039;" horiz-adv-x="665" d="M80 580q23 20 55 34q114 45 242 126t225 165q23 19 43 33q9 -8 16 -23.5t7 -23.5q-23 -161 -340 -344q243 -181 219 -359q-7 -33 -23 -49q-54 57 -156 142.5t-186 142.5q-5 3 -20 13t-19.5 13.5t-16.5 12.5t-16 15.5t-11.5 18t-10.5 22.5t-5.5 27t-2.5 34z" />
<glyph unicode="&#x203a;" horiz-adv-x="665" d="M82 186q23 161 340 344q-243 181 -219 359q8 35 22 49q54 -57 156 -142.5t186 -142.5q5 -3 22.5 -14.5t22.5 -15.5t18 -14.5t17.5 -19.5t11 -22.5t9 -30.5t2.5 -38q-24 -21 -56 -35q-114 -45 -242 -126t-225 -165q-23 -20 -43 -33q-9 8 -15.5 23.5t-6.5 23.5z" />
<glyph unicode="&#x205f;" horiz-adv-x="518" />
<glyph unicode="&#x20ac;" horiz-adv-x="1359" d="M92 473q15 93 40 119t93 26h39q8 91 35 193q-130 -3 -188 -18q17 103 44.5 132t102.5 29q53 0 86 -2q55 140 140.5 260t193 209t239.5 140t271 51q155 0 251.5 -52.5t96.5 -156.5q0 -129 -193 -213q-30 131 -90.5 191.5t-171.5 60.5q-78 0 -147 -40t-122.5 -110.5 t-94 -156.5t-70.5 -189q417 0 481 21q-24 -85 -49.5 -115t-70.5 -33q-106 -8 -394 -8q-18 -101 -24 -199q362 0 418 19q-21 -76 -44.5 -103t-64.5 -30q-129 -6 -309 -6q9 -160 81.5 -247t209.5 -87q102 0 221 59t221 156q29 -82 29 -109q0 -74 -91.5 -146.5t-233.5 -117.5 t-284 -45q-244 0 -363.5 139.5t-119.5 397.5q-116 -3 -168 -19z" />
<glyph unicode="&#x2122;" horiz-adv-x="1755" d="M244 1372q0 27 6 41q33 95 75.5 122.5t147.5 27.5q21 0 73 -2t70 -2h105q161 0 240 26q9 -19 2 -37q-16 -37 -31.5 -60.5t-30 -38t-38 -21t-45.5 -8t-62 -1.5q-70 0 -72 -12q-15 -59 -48.5 -170.5t-56 -192t-22.5 -106.5q0 -38 29 -72q-48 -22 -127 -22q-109 0 -109 82 q0 38 31.5 158t77.5 257q19 52 43 78q-35 0 -65 -2t-47.5 -3.5t-42.5 -8t-32 -8.5t-36 -12.5t-35 -12.5zM831 905q0 26 7 47q22 71 73.5 205.5t86.5 238.5t38 156q43 25 92 25q36 0 69 -17.5t38 -54.5q3 -16 16.5 -118.5t27 -180t26.5 -112.5q30 39 178 272q20 32 28 45 t25.5 39t28 36t28.5 27.5t35 24.5t40 16t49.5 12t58.5 3q20 0 30 -2q-33 -70 -58 -215t-30 -279q0 -54 6.5 -89t13.5 -48.5t23 -36.5q-69 -55 -149 -55q-45 0 -68.5 18.5t-23.5 67.5q0 54 14.5 173.5t21.5 143.5q-105 -172 -184.5 -266t-138.5 -94q-61 0 -92.5 98t-44.5 277 q-13 -45 -51 -157.5t-46 -148.5q-8 -35 15 -71q-38 -41 -99 -41q-84 0 -84 61z" />
<glyph unicode="&#xe000;" horiz-adv-x="1116" d="M0 0v1116h1116v-1116h-1116z" />
<glyph unicode="&#xfb01;" horiz-adv-x="1341" d="M-47 -303q1 9 22 33q77 63 128.5 149t70.5 184q105 562 150 764h-43q-40 0 -76.5 11.5t-36.5 31.5q0 2 1 5t1 4q18 51 35 72t51 30.5t104 9.5q4 16 8 33.5t9 38t8 31.5q29 117 84.5 206.5t146.5 158t228 104.5t315 36q125 0 192.5 -32t67.5 -117q0 -47 -54 -99.5 t-155 -101.5q-35 75 -79 107t-130 55q-71 12 -138.5 -16t-106.5 -88q-62 -91 -107 -316q59 0 92 2q62 2 199 17q181 21 225 24h29q69 0 100 -33q37 -40 25 -106q-13 -71 -23 -102q-12 -43 -28 -100t-26 -93t-15 -61q-31 -139 -31 -248q0 -47 23 -88q32 6 100 71 q93 103 123 103q32 0 -21 -129q-42 -99 -145.5 -179.5t-183.5 -80.5q-83 0 -130 47t-53 141q-4 46 5 137t36 193q12 43 22 85.5t14.5 66t11.5 65t10 55.5q10 51 10 111q-42 -19 -55 -23q-121 -37 -236 -37q-21 0 -59 1t-56 1q-12 -51 -44 -211t-62 -277t-70 -234 q-53 -151 -164.5 -266.5t-261.5 -172.5q-16 -4 -20 -4q-37 0 -37 31z" />
<glyph unicode="&#xfb02;" horiz-adv-x="1415" d="M-47 -303q1 9 22 33q77 63 128.5 149t70.5 184q105 562 150 764h-43q-40 0 -76.5 11.5t-36.5 31.5q0 2 1 5t1 4q18 51 35 72t51 30.5t104 9.5q4 16 8 33.5t9 38t8 31.5q29 117 84.5 206.5t146.5 158t228 104.5t315 36q28 0 49 -6q18 26 45 47q44 31 101 27q99 -7 176 -63 q15 -12 18 -31l1 -4q1 -4 2 -10.5t2 -15.5t2 -21.5t2 -26.5t0.5 -32t-1.5 -36q-10 -106 -81 -288q-63 -161 -197 -348l-14 -68q-2 -9 -15.5 -74t-15.5 -74q-43 -237 -43 -286q5 -51 27 -88q88 3 157 53q14 10 37.5 28t36 27t31 22.5t29 20t22 14t18.5 10.5t11 3 q23 0 -64 -141q-66 -104 -191 -177t-208 -73q-85 0 -135.5 47t-53.5 139q-4 42 13 172q7 55 38 195q-101 -74 -108 -74q-6 0 21 26.5t75 69.5q-3 0 11 11l8 6q65 345 168 751q-22 32 -50.5 49.5t-81.5 30.5q-71 12 -138.5 -16t-106.5 -88q-62 -91 -107 -316h45q41 0 122 7.5 t116 7.5q2 -8 2 -25q0 -152 -242 -152q-18 0 -40 1t-40 1q-12 -51 -44 -211t-62 -277t-70 -234q-53 -151 -164.5 -266.5t-261.5 -172.5q-16 -4 -20 -4q-37 0 -37 31zM1303 903q78 125 133 260q67 164 75 273q3 44 0 75q0 15 -15 19.5t-21 -8.5q-7 -12 -17 -35 q-32 -95 -82 -275q-28 -107 -73 -309z" />
</font>
</defs>
</svg>
